<svg xmlns="http://www.w3.org/2000/svg" width="890" height="520" viewBox="0 0 890 520">
<rect width="890" height="520" fill="#fafafa"/>
<rect x="70.0" y="366.0" width="136.5" height="84.5" fill="#440154" stroke="none" stroke-width="0"/>
<text x="138.0" y="412.0" font-size="10" font-family="Helvetica,Arial,sans-serif" text-anchor="middle" fill="#fff" font-weight="normal">-1</text>
<rect x="206.0" y="366.0" width="136.5" height="84.5" fill="#440154" stroke="none" stroke-width="0"/>
<text x="274.0" y="412.0" font-size="10" font-family="Helvetica,Arial,sans-serif" text-anchor="middle" fill="#fff" font-weight="normal">1</text>
<rect x="342.0" y="366.0" width="136.5" height="84.5" fill="#440255" stroke="none" stroke-width="0"/>
<text x="410.0" y="412.0" font-size="10" font-family="Helvetica,Arial,sans-serif" text-anchor="middle" fill="#fff" font-weight="normal">9</text>
<rect x="478.0" y="366.0" width="136.5" height="84.5" fill="#430758" stroke="none" stroke-width="0"/>
<text x="546.0" y="412.0" font-size="10" font-family="Helvetica,Arial,sans-serif" text-anchor="middle" fill="#fff" font-weight="normal">41</text>
<rect x="614.0" y="366.0" width="136.5" height="84.5" fill="#411a65" stroke="none" stroke-width="0"/>
<text x="682.0" y="412.0" font-size="10" font-family="Helvetica,Arial,sans-serif" text-anchor="middle" fill="#fff" font-weight="normal">169</text>
<rect x="70.0" y="282.0" width="136.5" height="84.5" fill="#440154" stroke="none" stroke-width="0"/>
<text x="138.0" y="328.0" font-size="10" font-family="Helvetica,Arial,sans-serif" text-anchor="middle" fill="#fff" font-weight="normal">0</text>
<rect x="206.0" y="282.0" width="136.5" height="84.5" fill="#440255" stroke="none" stroke-width="0"/>
<text x="274.0" y="328.0" font-size="10" font-family="Helvetica,Arial,sans-serif" text-anchor="middle" fill="#fff" font-weight="normal">6</text>
<rect x="342.0" y="282.0" width="136.5" height="84.5" fill="#430657" stroke="none" stroke-width="0"/>
<text x="410.0" y="328.0" font-size="10" font-family="Helvetica,Arial,sans-serif" text-anchor="middle" fill="#fff" font-weight="normal">31</text>
<rect x="478.0" y="282.0" width="136.5" height="84.5" fill="#421561" stroke="none" stroke-width="0"/>
<text x="546.0" y="328.0" font-size="10" font-family="Helvetica,Arial,sans-serif" text-anchor="middle" fill="#fff" font-weight="normal">130</text>
<rect x="614.0" y="282.0" width="136.5" height="84.5" fill="#3b4f89" stroke="none" stroke-width="0"/>
<text x="682.0" y="328.0" font-size="10" font-family="Helvetica,Arial,sans-serif" text-anchor="middle" fill="#fff" font-weight="normal">525</text>
<rect x="70.0" y="198.0" width="136.5" height="84.5" fill="#440154" stroke="none" stroke-width="0"/>
<text x="138.0" y="244.0" font-size="10" font-family="Helvetica,Arial,sans-serif" text-anchor="middle" fill="#fff" font-weight="normal">0</text>
<rect x="206.0" y="198.0" width="136.5" height="84.5" fill="#440255" stroke="none" stroke-width="0"/>
<text x="274.0" y="244.0" font-size="10" font-family="Helvetica,Arial,sans-serif" text-anchor="middle" fill="#fff" font-weight="normal">8</text>
<rect x="342.0" y="198.0" width="136.5" height="84.5" fill="#430758" stroke="none" stroke-width="0"/>
<text x="410.0" y="244.0" font-size="10" font-family="Helvetica,Arial,sans-serif" text-anchor="middle" fill="#fff" font-weight="normal">37</text>
<rect x="478.0" y="198.0" width="136.5" height="84.5" fill="#411864" stroke="none" stroke-width="0"/>
<text x="546.0" y="244.0" font-size="10" font-family="Helvetica,Arial,sans-serif" text-anchor="middle" fill="#fff" font-weight="normal">155</text>
<rect x="614.0" y="198.0" width="136.5" height="84.5" fill="#375c8b" stroke="none" stroke-width="0"/>
<text x="682.0" y="244.0" font-size="10" font-family="Helvetica,Arial,sans-serif" text-anchor="middle" fill="#fff" font-weight="normal">628</text>
<rect x="70.0" y="114.0" width="136.5" height="84.5" fill="#440154" stroke="none" stroke-width="0"/>
<text x="138.0" y="160.0" font-size="10" font-family="Helvetica,Arial,sans-serif" text-anchor="middle" fill="#fff" font-weight="normal">1</text>
<rect x="206.0" y="114.0" width="136.5" height="84.5" fill="#440255" stroke="none" stroke-width="0"/>
<text x="274.0" y="160.0" font-size="10" font-family="Helvetica,Arial,sans-serif" text-anchor="middle" fill="#fff" font-weight="normal">8</text>
<rect x="342.0" y="114.0" width="136.5" height="84.5" fill="#430758" stroke="none" stroke-width="0"/>
<text x="410.0" y="160.0" font-size="10" font-family="Helvetica,Arial,sans-serif" text-anchor="middle" fill="#fff" font-weight="normal">38</text>
<rect x="478.0" y="114.0" width="136.5" height="84.5" fill="#411964" stroke="none" stroke-width="0"/>
<text x="546.0" y="160.0" font-size="10" font-family="Helvetica,Arial,sans-serif" text-anchor="middle" fill="#fff" font-weight="normal">159</text>
<rect x="614.0" y="114.0" width="136.5" height="84.5" fill="#365d8b" stroke="none" stroke-width="0"/>
<text x="682.0" y="160.0" font-size="10" font-family="Helvetica,Arial,sans-serif" text-anchor="middle" fill="#fff" font-weight="normal">641</text>
<rect x="70.0" y="30.0" width="136.5" height="84.5" fill="#440255" stroke="none" stroke-width="0"/>
<text x="138.0" y="76.0" font-size="10" font-family="Helvetica,Arial,sans-serif" text-anchor="middle" fill="#fff" font-weight="normal">6</text>
<rect x="206.0" y="30.0" width="136.5" height="84.5" fill="#430657" stroke="none" stroke-width="0"/>
<text x="274.0" y="76.0" font-size="10" font-family="Helvetica,Arial,sans-serif" text-anchor="middle" fill="#fff" font-weight="normal">32</text>
<rect x="342.0" y="30.0" width="136.5" height="84.5" fill="#421562" stroke="none" stroke-width="0"/>
<text x="410.0" y="76.0" font-size="10" font-family="Helvetica,Arial,sans-serif" text-anchor="middle" fill="#fff" font-weight="normal">134</text>
<rect x="478.0" y="30.0" width="136.5" height="84.5" fill="#3b528b" stroke="none" stroke-width="0"/>
<text x="546.0" y="76.0" font-size="10" font-family="Helvetica,Arial,sans-serif" text-anchor="middle" fill="#fff" font-weight="normal">542</text>
<rect x="614.0" y="30.0" width="136.5" height="84.5" fill="#fde725" stroke="none" stroke-width="0"/>
<text x="682.0" y="76.0" font-size="10" font-family="Helvetica,Arial,sans-serif" text-anchor="middle" fill="#111" font-weight="normal">2173</text>
<rect x="70.0" y="30.0" width="680.0" height="420.0" fill="none" stroke="#999" stroke-width="1"/>
<text x="138.0" y="468.0" font-size="10" font-family="Helvetica,Arial,sans-serif" text-anchor="middle" fill="#222" font-weight="normal">25</text>
<text x="274.0" y="468.0" font-size="10" font-family="Helvetica,Arial,sans-serif" text-anchor="middle" fill="#222" font-weight="normal">50</text>
<text x="410.0" y="468.0" font-size="10" font-family="Helvetica,Arial,sans-serif" text-anchor="middle" fill="#222" font-weight="normal">100</text>
<text x="546.0" y="468.0" font-size="10" font-family="Helvetica,Arial,sans-serif" text-anchor="middle" fill="#222" font-weight="normal">200</text>
<text x="682.0" y="468.0" font-size="10" font-family="Helvetica,Arial,sans-serif" text-anchor="middle" fill="#222" font-weight="normal">400</text>
<text x="62.0" y="412.0" font-size="10" font-family="Helvetica,Arial,sans-serif" text-anchor="end" fill="#222" font-weight="normal">0.51</text>
<text x="62.0" y="328.0" font-size="10" font-family="Helvetica,Arial,sans-serif" text-anchor="end" fill="#222" font-weight="normal">1.6</text>
<text x="62.0" y="244.0" font-size="10" font-family="Helvetica,Arial,sans-serif" text-anchor="end" fill="#222" font-weight="normal">1.9</text>
<text x="62.0" y="160.0" font-size="10" font-family="Helvetica,Arial,sans-serif" text-anchor="end" fill="#222" font-weight="normal">1.9</text>
<text x="62.0" y="76.0" font-size="10" font-family="Helvetica,Arial,sans-serif" text-anchor="end" fill="#222" font-weight="normal">6.7</text>
<rect x="772.0" y="439.5" width="18.0" height="11.0" fill="#440154" stroke="none" stroke-width="0"/>
<rect x="772.0" y="429.0" width="18.0" height="11.0" fill="#43095a" stroke="none" stroke-width="0"/>
<rect x="772.0" y="418.5" width="18.0" height="11.0" fill="#42125f" stroke="none" stroke-width="0"/>
<rect x="772.0" y="408.0" width="18.0" height="11.0" fill="#411a65" stroke="none" stroke-width="0"/>
<rect x="772.0" y="397.5" width="18.0" height="11.0" fill="#40226b" stroke="none" stroke-width="0"/>
<rect x="772.0" y="387.0" width="18.0" height="11.0" fill="#3f2b70" stroke="none" stroke-width="0"/>
<rect x="772.0" y="376.5" width="18.0" height="11.0" fill="#3e3376" stroke="none" stroke-width="0"/>
<rect x="772.0" y="366.0" width="18.0" height="11.0" fill="#3e3b7b" stroke="none" stroke-width="0"/>
<rect x="772.0" y="355.5" width="18.0" height="11.0" fill="#3d4381" stroke="none" stroke-width="0"/>
<rect x="772.0" y="345.0" width="18.0" height="11.0" fill="#3c4c87" stroke="none" stroke-width="0"/>
<rect x="772.0" y="334.5" width="18.0" height="11.0" fill="#3a548b" stroke="none" stroke-width="0"/>
<rect x="772.0" y="324.0" width="18.0" height="11.0" fill="#385a8b" stroke="none" stroke-width="0"/>
<rect x="772.0" y="313.5" width="18.0" height="11.0" fill="#35618b" stroke="none" stroke-width="0"/>
<rect x="772.0" y="303.0" width="18.0" height="11.0" fill="#32678b" stroke="none" stroke-width="0"/>
<rect x="772.0" y="292.5" width="18.0" height="11.0" fill="#306d8b" stroke="none" stroke-width="0"/>
<rect x="772.0" y="282.0" width="18.0" height="11.0" fill="#2d748c" stroke="none" stroke-width="0"/>
<rect x="772.0" y="271.5" width="18.0" height="11.0" fill="#2a7a8c" stroke="none" stroke-width="0"/>
<rect x="772.0" y="261.0" width="18.0" height="11.0" fill="#28818c" stroke="none" stroke-width="0"/>
<rect x="772.0" y="250.5" width="18.0" height="11.0" fill="#25878c" stroke="none" stroke-width="0"/>
<rect x="772.0" y="240.0" width="18.0" height="11.0" fill="#228e8c" stroke="none" stroke-width="0"/>
<rect x="772.0" y="229.5" width="18.0" height="11.0" fill="#24948a" stroke="none" stroke-width="0"/>
<rect x="772.0" y="219.0" width="18.0" height="11.0" fill="#2a9a86" stroke="none" stroke-width="0"/>
<rect x="772.0" y="208.5" width="18.0" height="11.0" fill="#319f81" stroke="none" stroke-width="0"/>
<rect x="772.0" y="198.0" width="18.0" height="11.0" fill="#37a57d" stroke="none" stroke-width="0"/>
<rect x="772.0" y="187.5" width="18.0" height="11.0" fill="#3dab79" stroke="none" stroke-width="0"/>
<rect x="772.0" y="177.0" width="18.0" height="11.0" fill="#43b174" stroke="none" stroke-width="0"/>
<rect x="772.0" y="166.5" width="18.0" height="11.0" fill="#4ab670" stroke="none" stroke-width="0"/>
<rect x="772.0" y="156.0" width="18.0" height="11.0" fill="#50bc6c" stroke="none" stroke-width="0"/>
<rect x="772.0" y="145.5" width="18.0" height="11.0" fill="#56c267" stroke="none" stroke-width="0"/>
<rect x="772.0" y="135.0" width="18.0" height="11.0" fill="#5cc863" stroke="none" stroke-width="0"/>
<rect x="772.0" y="124.5" width="18.0" height="11.0" fill="#6acb5d" stroke="none" stroke-width="0"/>
<rect x="772.0" y="114.0" width="18.0" height="11.0" fill="#7bce57" stroke="none" stroke-width="0"/>
<rect x="772.0" y="103.5" width="18.0" height="11.0" fill="#8bd151" stroke="none" stroke-width="0"/>
<rect x="772.0" y="93.0" width="18.0" height="11.0" fill="#9bd54b" stroke="none" stroke-width="0"/>
<rect x="772.0" y="82.5" width="18.0" height="11.0" fill="#abd844" stroke="none" stroke-width="0"/>
<rect x="772.0" y="72.0" width="18.0" height="11.0" fill="#bcdb3e" stroke="none" stroke-width="0"/>
<rect x="772.0" y="61.5" width="18.0" height="11.0" fill="#ccde38" stroke="none" stroke-width="0"/>
<rect x="772.0" y="51.0" width="18.0" height="11.0" fill="#dce132" stroke="none" stroke-width="0"/>
<rect x="772.0" y="40.5" width="18.0" height="11.0" fill="#ede42b" stroke="none" stroke-width="0"/>
<rect x="772.0" y="30.0" width="18.0" height="11.0" fill="#fde725" stroke="none" stroke-width="0"/>
<rect x="772.0" y="30.0" width="18.0" height="420.0" fill="none" stroke="#999" stroke-width="1"/>
<text x="794.0" y="454.0" font-size="10" font-family="Helvetica,Arial,sans-serif" text-anchor="start" fill="#222" font-weight="normal">-1.3</text>
<text x="794.0" y="244.0" font-size="10" font-family="Helvetica,Arial,sans-serif" text-anchor="start" fill="#222" font-weight="normal">1,086</text>
<text x="794.0" y="34.0" font-size="10" font-family="Helvetica,Arial,sans-serif" text-anchor="start" fill="#222" font-weight="normal">2,173</text>
<text x="781.0" y="20.0" font-size="11" font-family="Helvetica,Arial,sans-serif" text-anchor="middle" fill="#222" font-weight="normal">net kW</text>
<text x="410.0" y="18.0" font-size="16" font-family="Helvetica,Arial,sans-serif" text-anchor="middle" fill="#222" font-weight="bold">NET power (kW): bubble size x tip speed  [plasma magnet, 1 AU]</text>
<text x="410.0" y="504.0" font-size="13" font-family="Helvetica,Arial,sans-serif" text-anchor="middle" fill="#222" font-weight="normal">bubble radius at 1 AU (km)</text>
<text x="18.0" y="240.0" font-size="13" font-family="Helvetica,Arial,sans-serif" text-anchor="middle" fill="#222" font-weight="normal" transform="rotate(-90 18 240.0)">tip speed (km/s) — by material</text>
</svg>
