<svg xmlns="http://www.w3.org/2000/svg" width="820" height="520" viewBox="0 0 820 520">
<rect width="820" height="520" fill="#fafafa"/>
<rect x="70.0" y="60.0" width="720.0" height="390.0" fill="#fff" stroke="#ccc" stroke-width="1"/>
<line x1="70.0" y1="60.0" x2="70.0" y2="450.0" stroke="#eee" stroke-width="1"/>
<line x1="70.0" y1="450.0" x2="70.0" y2="455.0" stroke="#888" stroke-width="1"/>
<text x="70.0" y="468.0" font-size="11" font-family="Helvetica,Arial,sans-serif" text-anchor="middle" fill="#222" font-weight="normal">0</text>
<line x1="215.5" y1="60.0" x2="215.5" y2="450.0" stroke="#eee" stroke-width="1"/>
<line x1="215.5" y1="450.0" x2="215.5" y2="455.0" stroke="#888" stroke-width="1"/>
<text x="215.5" y="468.0" font-size="11" font-family="Helvetica,Arial,sans-serif" text-anchor="middle" fill="#222" font-weight="normal">0.20</text>
<line x1="360.9" y1="60.0" x2="360.9" y2="450.0" stroke="#eee" stroke-width="1"/>
<line x1="360.9" y1="450.0" x2="360.9" y2="455.0" stroke="#888" stroke-width="1"/>
<text x="360.9" y="468.0" font-size="11" font-family="Helvetica,Arial,sans-serif" text-anchor="middle" fill="#222" font-weight="normal">0.40</text>
<line x1="506.4" y1="60.0" x2="506.4" y2="450.0" stroke="#eee" stroke-width="1"/>
<line x1="506.4" y1="450.0" x2="506.4" y2="455.0" stroke="#888" stroke-width="1"/>
<text x="506.4" y="468.0" font-size="11" font-family="Helvetica,Arial,sans-serif" text-anchor="middle" fill="#222" font-weight="normal">0.60</text>
<line x1="651.8" y1="60.0" x2="651.8" y2="450.0" stroke="#eee" stroke-width="1"/>
<line x1="651.8" y1="450.0" x2="651.8" y2="455.0" stroke="#888" stroke-width="1"/>
<text x="651.8" y="468.0" font-size="11" font-family="Helvetica,Arial,sans-serif" text-anchor="middle" fill="#222" font-weight="normal">0.80</text>
<line x1="70.0" y1="450.0" x2="790.0" y2="450.0" stroke="#eee" stroke-width="1"/>
<line x1="65.0" y1="450.0" x2="70.0" y2="450.0" stroke="#888" stroke-width="1"/>
<text x="61.0" y="454.0" font-size="11" font-family="Helvetica,Arial,sans-serif" text-anchor="end" fill="#222" font-weight="normal">0</text>
<line x1="70.0" y1="375.7" x2="790.0" y2="375.7" stroke="#eee" stroke-width="1"/>
<line x1="65.0" y1="375.7" x2="70.0" y2="375.7" stroke="#888" stroke-width="1"/>
<text x="61.0" y="379.7" font-size="11" font-family="Helvetica,Arial,sans-serif" text-anchor="end" fill="#222" font-weight="normal">0.20</text>
<line x1="70.0" y1="301.4" x2="790.0" y2="301.4" stroke="#eee" stroke-width="1"/>
<line x1="65.0" y1="301.4" x2="70.0" y2="301.4" stroke="#888" stroke-width="1"/>
<text x="61.0" y="305.4" font-size="11" font-family="Helvetica,Arial,sans-serif" text-anchor="end" fill="#222" font-weight="normal">0.40</text>
<line x1="70.0" y1="227.1" x2="790.0" y2="227.1" stroke="#eee" stroke-width="1"/>
<line x1="65.0" y1="227.1" x2="70.0" y2="227.1" stroke="#888" stroke-width="1"/>
<text x="61.0" y="231.1" font-size="11" font-family="Helvetica,Arial,sans-serif" text-anchor="end" fill="#222" font-weight="normal">0.60</text>
<line x1="70.0" y1="152.9" x2="790.0" y2="152.9" stroke="#eee" stroke-width="1"/>
<line x1="65.0" y1="152.9" x2="70.0" y2="152.9" stroke="#888" stroke-width="1"/>
<text x="61.0" y="156.9" font-size="11" font-family="Helvetica,Arial,sans-serif" text-anchor="end" fill="#222" font-weight="normal">0.80</text>
<line x1="70.0" y1="78.6" x2="790.0" y2="78.6" stroke="#eee" stroke-width="1"/>
<line x1="65.0" y1="78.6" x2="70.0" y2="78.6" stroke="#888" stroke-width="1"/>
<text x="61.0" y="82.6" font-size="11" font-family="Helvetica,Arial,sans-serif" text-anchor="end" fill="#222" font-weight="normal">1.0</text>
<polyline points="70.0,443.8 73.6,443.7 77.3,443.7 80.9,443.7 84.5,443.6 88.2,443.6 91.8,443.6 95.5,443.5 99.1,443.5 102.7,443.5 106.4,443.4 110.0,443.4 113.6,443.4 117.3,443.3 120.9,443.3 124.5,443.3 128.2,443.2 131.8,443.2 135.5,443.2 139.1,443.1 142.7,443.1 146.4,443.0 150.0,443.0 153.6,443.0 157.3,442.9 160.9,442.9 164.5,442.8 168.2,442.8 171.8,442.8 175.5,442.7 179.1,442.7 182.7,442.6 186.4,442.6 190.0,442.5 193.6,442.5 197.3,442.4 200.9,442.4 204.5,442.4 208.2,442.3 211.8,442.3 215.5,442.2 219.1,442.2 222.7,442.1 226.4,442.1 230.0,442.0 233.6,442.0 237.3,441.9 240.9,441.9 244.5,441.8 248.2,441.8 251.8,441.7 255.5,441.6 259.1,441.6 262.7,441.5 266.4,441.5 270.0,441.4 273.6,441.4 277.3,441.3 280.9,441.2 284.5,441.2 288.2,441.1 291.8,441.0 295.5,441.0 299.1,440.9 302.7,440.9 306.4,440.8 310.0,440.7 313.6,440.6 317.3,440.6 320.9,440.5 324.5,440.4 328.2,440.4 331.8,440.3 335.5,440.2 339.1,440.1 342.7,440.1 346.4,440.0 350.0,439.9 353.6,439.8 357.3,439.7 360.9,439.6 364.5,439.6 368.2,439.5 371.8,439.4 375.5,439.3 379.1,439.2 382.7,439.1 386.4,439.0 390.0,438.9 393.6,438.8 397.3,438.7 400.9,438.6 404.5,438.5 408.2,438.4 411.8,438.3 415.5,438.2 419.1,438.1 422.7,437.9 426.4,437.8 430.0,437.7 433.6,437.6 437.3,437.5 440.9,437.3 444.5,437.2 448.2,437.1 451.8,436.9 455.5,436.8 459.1,436.7 462.7,436.5 466.4,436.4 470.0,436.2 473.6,436.1 477.3,435.9 480.9,435.8 484.5,435.6 488.2,435.4 491.8,435.3 495.5,435.1 499.1,434.9 502.7,434.7 506.4,434.5 510.0,434.3 513.6,434.1 517.3,433.9 520.9,433.7 524.5,433.5 528.2,433.3 531.8,433.1 535.5,432.8 539.1,432.6 542.7,432.3 546.4,432.1 550.0,431.8 553.6,431.6 557.3,431.3 560.9,431.0 564.5,430.7 568.2,430.4 571.8,430.1 575.5,429.8 579.1,429.5 582.7,429.1 586.4,428.8 590.0,428.4 593.6,428.0 597.3,427.6 600.9,427.2 604.5,426.8 608.2,426.4 611.8,425.9 615.5,425.4 619.1,424.9 622.7,424.4 626.4,423.9 630.0,423.3 633.6,422.8 637.3,422.2 640.9,421.5 644.5,420.9 648.2,420.2 651.8,419.4 655.5,418.7 659.1,417.9 662.7,417.0 666.4,416.1 670.0,415.2 673.6,414.2 677.3,413.2 680.9,412.0 684.5,410.9 688.2,409.6 691.8,408.3 695.5,406.8 699.1,405.3 702.7,403.6 706.4,401.8 710.0,399.9 713.6,397.8 717.3,395.6 720.9,393.1 724.5,390.4 728.2,387.4 731.8,384.2 735.5,380.5 739.1,376.5 742.7,371.9 746.4,366.7 750.0,360.8 753.6,354.1 757.3,346.2 760.9,336.9 764.5,325.8 768.2,312.3 771.8,295.6 775.5,274.4 779.1,246.9 782.7,210.1 786.4,159.8 790.0,97.4" fill="none" stroke="#2c7fb8" stroke-width="2.2"/>
<polyline points="70.0,78.6 73.6,82.3 77.3,86.0 80.9,89.7 84.5,93.3 88.2,97.0 91.8,100.6 95.5,104.2 99.1,107.8 102.7,111.3 106.4,114.9 110.0,118.4 113.6,121.9 117.3,125.4 120.9,128.9 124.5,132.3 128.2,135.8 131.8,139.2 135.5,142.6 139.1,146.0 142.7,149.3 146.4,152.7 150.0,156.0 153.6,159.3 157.3,162.6 160.9,165.8 164.5,169.1 168.2,172.3 171.8,175.5 175.5,178.7 179.1,181.9 182.7,185.0 186.4,188.2 190.0,191.3 193.6,194.4 197.3,197.5 200.9,200.5 204.5,203.6 208.2,206.6 211.8,209.6 215.5,212.6 219.1,215.6 222.7,218.5 226.4,221.4 230.0,224.3 233.6,227.2 237.3,230.1 240.9,233.0 244.5,235.8 248.2,238.6 251.8,241.4 255.5,244.2 259.1,247.0 262.7,249.7 266.4,252.4 270.0,255.1 273.6,257.8 277.3,260.5 280.9,263.1 284.5,265.8 288.2,268.4 291.8,271.0 295.5,273.6 299.1,276.1 302.7,278.7 306.4,281.2 310.0,283.7 313.6,286.2 317.3,288.6 320.9,291.1 324.5,293.5 328.2,295.9 331.8,298.3 335.5,300.7 339.1,303.0 342.7,305.3 346.4,307.7 350.0,310.0 353.6,312.2 357.3,314.5 360.9,316.7 364.5,319.0 368.2,321.2 371.8,323.3 375.5,325.5 379.1,327.7 382.7,329.8 386.4,331.9 390.0,334.0 393.6,336.1 397.3,338.1 400.9,340.1 404.5,342.2 408.2,344.2 411.8,346.1 415.5,348.1 419.1,350.0 422.7,352.0 426.4,353.9 430.0,355.7 433.6,357.6 437.3,359.5 440.9,361.3 444.5,363.1 448.2,364.9 451.8,366.7 455.5,368.4 459.1,370.2 462.7,371.9 466.4,373.6 470.0,375.2 473.6,376.9 477.3,378.5 480.9,380.2 484.5,381.8 488.2,383.4 491.8,384.9 495.5,386.5 499.1,388.0 502.7,389.5 506.4,391.0 510.0,392.5 513.6,393.9 517.3,395.4 520.9,396.8 524.5,398.2 528.2,399.6 531.8,400.9 535.5,402.3 539.1,403.6 542.7,404.9 546.4,406.2 550.0,407.5 553.6,408.7 557.3,410.0 560.9,411.2 564.5,412.4 568.2,413.5 571.8,414.7 575.5,415.8 579.1,417.0 582.7,418.1 586.4,419.1 590.0,420.2 593.6,421.3 597.3,422.3 600.9,423.3 604.5,424.3 608.2,425.2 611.8,426.2 615.5,427.1 619.1,428.0 622.7,428.9 626.4,429.8 630.0,430.7 633.6,431.5 637.3,432.3 640.9,433.1 644.5,433.9 648.2,434.7 651.8,435.4 655.5,436.2 659.1,436.9 662.7,437.6 666.4,438.2 670.0,438.9 673.6,439.5 677.3,440.1 680.9,440.7 684.5,441.3 688.2,441.9 691.8,442.4 695.5,442.9 699.1,443.4 702.7,443.9 706.4,444.4 710.0,444.8 713.6,445.3 717.3,445.7 720.9,446.1 724.5,446.5 728.2,446.8 731.8,447.1 735.5,447.5 739.1,447.8 742.7,448.0 746.4,448.3 750.0,448.5 753.6,448.8 757.3,449.0 760.9,449.2 764.5,449.3 768.2,449.5 771.8,449.6 775.5,449.7 779.1,449.8 782.7,449.9 786.4,449.9 790.0,450.0" fill="none" stroke="#d95f02" stroke-width="2.2"/>
<text x="430.0" y="48.0" font-size="16" font-family="Helvetica,Arial,sans-serif" text-anchor="middle" fill="#222" font-weight="bold">Riding outbound: efficiency climbs, absolute power collapses</text>
<text x="430.0" y="504.0" font-size="13" font-family="Helvetica,Arial,sans-serif" text-anchor="middle" fill="#222" font-weight="normal">craft speed as fraction of wind speed</text>
<text x="18.0" y="255.0" font-size="13" font-family="Helvetica,Arial,sans-serif" text-anchor="middle" fill="#222" font-weight="normal" transform="rotate(-90 18 255.0)">fraction of maximum</text>
<rect x="632.0" y="58.0" width="158.0" height="44.0" fill="#ffffffcc" stroke="#ddd" stroke-width="1"/>
<line x1="640.0" y1="72.0" x2="662.0" y2="72.0" stroke="#2c7fb8" stroke-width="3"/>
<text x="668.0" y="76.0" font-size="11" font-family="Helvetica,Arial,sans-serif" text-anchor="start" fill="#222" font-weight="normal">turbine efficiency (Cp / Cp_max)</text>
<line x1="640.0" y1="90.0" x2="662.0" y2="90.0" stroke="#d95f02" stroke-width="3"/>
<text x="668.0" y="94.0" font-size="11" font-family="Helvetica,Arial,sans-serif" text-anchor="start" fill="#222" font-weight="normal">extracted power (P / P_max)</text>
</svg>
