<svg xmlns="http://www.w3.org/2000/svg" width="820" height="520" viewBox="0 0 820 520">
<rect width="820" height="520" fill="#fafafa"/>
<rect x="70.0" y="60.0" width="720.0" height="390.0" fill="#fff" stroke="#ccc" stroke-width="1"/>
<line x1="70.0" y1="60.0" x2="70.0" y2="450.0" stroke="#eee" stroke-width="1"/>
<line x1="70.0" y1="450.0" x2="70.0" y2="455.0" stroke="#888" stroke-width="1"/>
<text x="70.0" y="468.0" font-size="11" font-family="Helvetica,Arial,sans-serif" text-anchor="middle" fill="#222" font-weight="normal">0</text>
<line x1="215.5" y1="60.0" x2="215.5" y2="450.0" stroke="#eee" stroke-width="1"/>
<line x1="215.5" y1="450.0" x2="215.5" y2="455.0" stroke="#888" stroke-width="1"/>
<text x="215.5" y="468.0" font-size="11" font-family="Helvetica,Arial,sans-serif" text-anchor="middle" fill="#222" font-weight="normal">0.20</text>
<line x1="360.9" y1="60.0" x2="360.9" y2="450.0" stroke="#eee" stroke-width="1"/>
<line x1="360.9" y1="450.0" x2="360.9" y2="455.0" stroke="#888" stroke-width="1"/>
<text x="360.9" y="468.0" font-size="11" font-family="Helvetica,Arial,sans-serif" text-anchor="middle" fill="#222" font-weight="normal">0.40</text>
<line x1="506.4" y1="60.0" x2="506.4" y2="450.0" stroke="#eee" stroke-width="1"/>
<line x1="506.4" y1="450.0" x2="506.4" y2="455.0" stroke="#888" stroke-width="1"/>
<text x="506.4" y="468.0" font-size="11" font-family="Helvetica,Arial,sans-serif" text-anchor="middle" fill="#222" font-weight="normal">0.60</text>
<line x1="651.8" y1="60.0" x2="651.8" y2="450.0" stroke="#eee" stroke-width="1"/>
<line x1="651.8" y1="450.0" x2="651.8" y2="455.0" stroke="#888" stroke-width="1"/>
<text x="651.8" y="468.0" font-size="11" font-family="Helvetica,Arial,sans-serif" text-anchor="middle" fill="#222" font-weight="normal">0.80</text>
<line x1="70.0" y1="450.0" x2="790.0" y2="450.0" stroke="#eee" stroke-width="1"/>
<line x1="65.0" y1="450.0" x2="70.0" y2="450.0" stroke="#888" stroke-width="1"/>
<text x="61.0" y="454.0" font-size="11" font-family="Helvetica,Arial,sans-serif" text-anchor="end" fill="#222" font-weight="normal">0</text>
<line x1="70.0" y1="375.7" x2="790.0" y2="375.7" stroke="#eee" stroke-width="1"/>
<line x1="65.0" y1="375.7" x2="70.0" y2="375.7" stroke="#888" stroke-width="1"/>
<text x="61.0" y="379.7" font-size="11" font-family="Helvetica,Arial,sans-serif" text-anchor="end" fill="#222" font-weight="normal">0.20</text>
<line x1="70.0" y1="301.4" x2="790.0" y2="301.4" stroke="#eee" stroke-width="1"/>
<line x1="65.0" y1="301.4" x2="70.0" y2="301.4" stroke="#888" stroke-width="1"/>
<text x="61.0" y="305.4" font-size="11" font-family="Helvetica,Arial,sans-serif" text-anchor="end" fill="#222" font-weight="normal">0.40</text>
<line x1="70.0" y1="227.1" x2="790.0" y2="227.1" stroke="#eee" stroke-width="1"/>
<line x1="65.0" y1="227.1" x2="70.0" y2="227.1" stroke="#888" stroke-width="1"/>
<text x="61.0" y="231.1" font-size="11" font-family="Helvetica,Arial,sans-serif" text-anchor="end" fill="#222" font-weight="normal">0.60</text>
<line x1="70.0" y1="152.9" x2="790.0" y2="152.9" stroke="#eee" stroke-width="1"/>
<line x1="65.0" y1="152.9" x2="70.0" y2="152.9" stroke="#888" stroke-width="1"/>
<text x="61.0" y="156.9" font-size="11" font-family="Helvetica,Arial,sans-serif" text-anchor="end" fill="#222" font-weight="normal">0.80</text>
<line x1="70.0" y1="78.6" x2="790.0" y2="78.6" stroke="#eee" stroke-width="1"/>
<line x1="65.0" y1="78.6" x2="70.0" y2="78.6" stroke="#888" stroke-width="1"/>
<text x="61.0" y="82.6" font-size="11" font-family="Helvetica,Arial,sans-serif" text-anchor="end" fill="#222" font-weight="normal">1.0</text>
<polyline points="70.0,443.8 73.6,443.7 77.3,443.7 80.9,443.7 84.5,443.6 88.2,443.6 91.8,443.6 95.5,443.5 99.1,443.5 102.7,443.5 106.4,443.4 110.0,443.4 113.6,443.4 117.3,443.3 120.9,443.3 124.5,443.3 128.2,443.2 131.8,443.2 135.5,443.2 139.1,443.1 142.7,443.1 146.4,443.0 150.0,443.0 153.6,443.0 157.3,442.9 160.9,442.9 164.5,442.8 168.2,442.8 171.8,442.8 175.5,442.7 179.1,442.7 182.7,442.6 186.4,442.6 190.0,442.5 193.6,442.5 197.3,442.4 200.9,442.4 204.5,442.4 208.2,442.3 211.8,442.3 215.5,442.2 219.1,442.2 222.7,442.1 226.4,442.1 230.0,442.0 233.6,442.0 237.3,441.9 240.9,441.9 244.5,441.8 248.2,441.8 251.8,441.7 255.5,441.6 259.1,441.6 262.7,441.5 266.4,441.5 270.0,441.4 273.6,441.4 277.3,441.3 280.9,441.2 284.5,441.2 288.2,441.1 291.8,441.0 295.5,441.0 299.1,440.9 302.7,440.9 306.4,440.8 310.0,440.7 313.6,440.6 317.3,440.6 320.9,440.5 324.5,440.4 328.2,440.4 331.8,440.3 335.5,440.2 339.1,440.1 342.7,440.1 346.4,440.0 350.0,439.9 353.6,439.8 357.3,439.7 360.9,439.6 364.5,439.6 368.2,439.5 371.8,439.4 375.5,439.3 379.1,439.2 382.7,439.1 386.4,439.0 390.0,438.9 393.6,438.8 397.3,438.7 400.9,438.6 404.5,438.5 408.2,438.4 411.8,438.3 415.5,438.2 419.1,438.1 422.7,437.9 426.4,437.8 430.0,437.7 433.6,437.6 437.3,437.5 440.9,437.3 444.5,437.2 448.2,437.1 451.8,436.9 455.5,436.8 459.1,436.7 462.7,436.5 466.4,436.4 470.0,436.2 473.6,436.1 477.3,435.9 480.9,435.8 484.5,435.6 488.2,435.4 491.8,435.3 495.5,435.1 499.1,434.9 502.7,434.7 506.4,434.5 510.0,434.3 513.6,434.1 517.3,433.9 520.9,433.7 524.5,433.5 528.2,433.3 531.8,433.1 535.5,432.8 539.1,432.6 542.7,432.3 546.4,432.1 550.0,431.8 553.6,431.6 557.3,431.3 560.9,431.0 564.5,430.7 568.2,430.4 571.8,430.1 575.5,429.8 579.1,429.5 582.7,429.1 586.4,428.8 590.0,428.4 593.6,428.0 597.3,427.6 600.9,427.2 604.5,426.8 608.2,426.4 611.8,425.9 615.5,425.4 619.1,424.9 622.7,424.4 626.4,423.9 630.0,423.3 633.6,422.8 637.3,422.2 640.9,421.5 644.5,420.9 648.2,420.2 651.8,419.4 655.5,418.7 659.1,417.9 662.7,417.0 666.4,416.1 670.0,415.2 673.6,414.2 677.3,413.2 680.9,412.0 684.5,410.9 688.2,409.6 691.8,408.3 695.5,406.8 699.1,405.3 702.7,403.6 706.4,401.8 710.0,399.9 713.6,397.8 717.3,395.6 720.9,393.1 724.5,390.4 728.2,387.4 731.8,384.2 735.5,380.5 739.1,376.5 742.7,371.9 746.4,366.7 750.0,360.8 753.6,354.1 757.3,346.2 760.9,336.9 764.5,325.8 768.2,312.3 771.8,295.6 775.5,274.4 779.1,246.9 782.7,210.1 786.4,159.8 790.0,97.4" fill="none" stroke="#2c7fb8" stroke-width="2.2"/>
<polyline points="70.0,78.6 73.6,78.6 77.3,78.6 80.9,78.6 84.5,78.6 88.2,78.6 91.8,78.6 95.5,78.6 99.1,78.6 102.7,78.7 106.4,78.7 110.0,78.7 113.6,78.7 117.3,78.7 120.9,78.7 124.5,78.7 128.2,78.7 131.8,78.7 135.5,78.8 139.1,78.8 142.7,78.8 146.4,78.8 150.0,78.8 153.6,78.8 157.3,78.8 160.9,78.8 164.5,78.8 168.2,78.9 171.8,78.9 175.5,78.9 179.1,78.9 182.7,78.9 186.4,78.9 190.0,78.9 193.6,79.0 197.3,79.0 200.9,79.0 204.5,79.0 208.2,79.0 211.8,79.0 215.5,79.0 219.1,79.1 222.7,79.1 226.4,79.1 230.0,79.1 233.6,79.1 237.3,79.1 240.9,79.1 244.5,79.2 248.2,79.2 251.8,79.2 255.5,79.2 259.1,79.2 262.7,79.2 266.4,79.3 270.0,79.3 273.6,79.3 277.3,79.3 280.9,79.3 284.5,79.4 288.2,79.4 291.8,79.4 295.5,79.4 299.1,79.4 302.7,79.4 306.4,79.5 310.0,79.5 313.6,79.5 317.3,79.5 320.9,79.6 324.5,79.6 328.2,79.6 331.8,79.6 335.5,79.6 339.1,79.7 342.7,79.7 346.4,79.7 350.0,79.7 353.6,79.8 357.3,79.8 360.9,79.8 364.5,79.8 368.2,79.9 371.8,79.9 375.5,79.9 379.1,79.9 382.7,80.0 386.4,80.0 390.0,80.0 393.6,80.1 397.3,80.1 400.9,80.1 404.5,80.2 408.2,80.2 411.8,80.2 415.5,80.3 419.1,80.3 422.7,80.3 426.4,80.4 430.0,80.4 433.6,80.4 437.3,80.5 440.9,80.5 444.5,80.5 448.2,80.6 451.8,80.6 455.5,80.7 459.1,80.7 462.7,80.8 466.4,80.8 470.0,80.8 473.6,80.9 477.3,80.9 480.9,81.0 484.5,81.0 488.2,81.1 491.8,81.1 495.5,81.2 499.1,81.2 502.7,81.3 506.4,81.4 510.0,81.4 513.6,81.5 517.3,81.5 520.9,81.6 524.5,81.7 528.2,81.7 531.8,81.8 535.5,81.9 539.1,81.9 542.7,82.0 546.4,82.1 550.0,82.2 553.6,82.3 557.3,82.3 560.9,82.4 564.5,82.5 568.2,82.6 571.8,82.7 575.5,82.8 579.1,82.9 582.7,83.0 586.4,83.1 590.0,83.2 593.6,83.3 597.3,83.5 600.9,83.6 604.5,83.7 608.2,83.9 611.8,84.0 615.5,84.1 619.1,84.3 622.7,84.4 626.4,84.6 630.0,84.8 633.6,85.0 637.3,85.1 640.9,85.3 644.5,85.5 648.2,85.8 651.8,86.0 655.5,86.2 659.1,86.5 662.7,86.7 666.4,87.0 670.0,87.3 673.6,87.6 677.3,87.9 680.9,88.3 684.5,88.7 688.2,89.0 691.8,89.5 695.5,89.9 699.1,90.4 702.7,90.9 706.4,91.5 710.0,92.1 713.6,92.8 717.3,93.5 720.9,94.3 724.5,95.1 728.2,96.1 731.8,97.2 735.5,98.3 739.1,99.7 742.7,101.2 746.4,102.9 750.0,104.9 753.6,107.2 757.3,109.9 760.9,113.1 764.5,117.0 768.2,121.9 771.8,128.1 775.5,136.3 779.1,147.6 782.7,164.2 786.4,190.8 790.0,240.0" fill="none" stroke="#d95f02" stroke-width="2.2"/>
<text x="430.0" y="48.0" font-size="16" font-family="Helvetica,Arial,sans-serif" text-anchor="middle" fill="#222" font-weight="bold">Riding outbound: efficiency climbs, absolute power collapses</text>
<text x="430.0" y="504.0" font-size="13" font-family="Helvetica,Arial,sans-serif" text-anchor="middle" fill="#222" font-weight="normal">craft speed as fraction of wind speed</text>
<text x="18.0" y="255.0" font-size="13" font-family="Helvetica,Arial,sans-serif" text-anchor="middle" fill="#222" font-weight="normal" transform="rotate(-90 18 255.0)">fraction of maximum</text>
<rect x="632.0" y="58.0" width="158.0" height="44.0" fill="#ffffffcc" stroke="#ddd" stroke-width="1"/>
<line x1="640.0" y1="72.0" x2="662.0" y2="72.0" stroke="#2c7fb8" stroke-width="3"/>
<text x="668.0" y="76.0" font-size="11" font-family="Helvetica,Arial,sans-serif" text-anchor="start" fill="#222" font-weight="normal">efficiency (Cp / Cp_max)</text>
<line x1="640.0" y1="90.0" x2="662.0" y2="90.0" stroke="#d95f02" stroke-width="3"/>
<text x="668.0" y="94.0" font-size="11" font-family="Helvetica,Arial,sans-serif" text-anchor="start" fill="#222" font-weight="normal">extracted power (P / P_max)</text>
</svg>
