<svg xmlns="http://www.w3.org/2000/svg" width="820" height="520" viewBox="0 0 820 520">
<rect width="820" height="520" fill="#fafafa"/>
<rect x="70.0" y="60.0" width="720.0" height="390.0" fill="#fff" stroke="#ccc" stroke-width="1"/>
<line x1="169.3" y1="60.0" x2="169.3" y2="450.0" stroke="#eee" stroke-width="1"/>
<line x1="169.3" y1="450.0" x2="169.3" y2="455.0" stroke="#888" stroke-width="1"/>
<text x="169.3" y="468.0" font-size="11" font-family="Helvetica,Arial,sans-serif" text-anchor="middle" fill="#222" font-weight="normal">25</text>
<line x1="293.4" y1="60.0" x2="293.4" y2="450.0" stroke="#eee" stroke-width="1"/>
<line x1="293.4" y1="450.0" x2="293.4" y2="455.0" stroke="#888" stroke-width="1"/>
<text x="293.4" y="468.0" font-size="11" font-family="Helvetica,Arial,sans-serif" text-anchor="middle" fill="#222" font-weight="normal">50</text>
<line x1="417.6" y1="60.0" x2="417.6" y2="450.0" stroke="#eee" stroke-width="1"/>
<line x1="417.6" y1="450.0" x2="417.6" y2="455.0" stroke="#888" stroke-width="1"/>
<text x="417.6" y="468.0" font-size="11" font-family="Helvetica,Arial,sans-serif" text-anchor="middle" fill="#222" font-weight="normal">75</text>
<line x1="541.7" y1="60.0" x2="541.7" y2="450.0" stroke="#eee" stroke-width="1"/>
<line x1="541.7" y1="450.0" x2="541.7" y2="455.0" stroke="#888" stroke-width="1"/>
<text x="541.7" y="468.0" font-size="11" font-family="Helvetica,Arial,sans-serif" text-anchor="middle" fill="#222" font-weight="normal">100</text>
<line x1="665.9" y1="60.0" x2="665.9" y2="450.0" stroke="#eee" stroke-width="1"/>
<line x1="665.9" y1="450.0" x2="665.9" y2="455.0" stroke="#888" stroke-width="1"/>
<text x="665.9" y="468.0" font-size="11" font-family="Helvetica,Arial,sans-serif" text-anchor="middle" fill="#222" font-weight="normal">125</text>
<line x1="790.0" y1="60.0" x2="790.0" y2="450.0" stroke="#eee" stroke-width="1"/>
<line x1="790.0" y1="450.0" x2="790.0" y2="455.0" stroke="#888" stroke-width="1"/>
<text x="790.0" y="468.0" font-size="11" font-family="Helvetica,Arial,sans-serif" text-anchor="middle" fill="#222" font-weight="normal">150</text>
<line x1="70.0" y1="432.3" x2="790.0" y2="432.3" stroke="#eee" stroke-width="1"/>
<line x1="65.0" y1="432.3" x2="70.0" y2="432.3" stroke="#888" stroke-width="1"/>
<text x="61.0" y="436.3" font-size="11" font-family="Helvetica,Arial,sans-serif" text-anchor="end" fill="#222" font-weight="normal">-50</text>
<line x1="70.0" y1="343.6" x2="790.0" y2="343.6" stroke="#eee" stroke-width="1"/>
<line x1="65.0" y1="343.6" x2="70.0" y2="343.6" stroke="#888" stroke-width="1"/>
<text x="61.0" y="347.6" font-size="11" font-family="Helvetica,Arial,sans-serif" text-anchor="end" fill="#222" font-weight="normal">0</text>
<line x1="70.0" y1="255.0" x2="790.0" y2="255.0" stroke="#eee" stroke-width="1"/>
<line x1="65.0" y1="255.0" x2="70.0" y2="255.0" stroke="#888" stroke-width="1"/>
<text x="61.0" y="259.0" font-size="11" font-family="Helvetica,Arial,sans-serif" text-anchor="end" fill="#222" font-weight="normal">50</text>
<line x1="70.0" y1="166.4" x2="790.0" y2="166.4" stroke="#eee" stroke-width="1"/>
<line x1="65.0" y1="166.4" x2="70.0" y2="166.4" stroke="#888" stroke-width="1"/>
<text x="61.0" y="170.4" font-size="11" font-family="Helvetica,Arial,sans-serif" text-anchor="end" fill="#222" font-weight="normal">100</text>
<line x1="70.0" y1="77.7" x2="790.0" y2="77.7" stroke="#eee" stroke-width="1"/>
<line x1="65.0" y1="77.7" x2="70.0" y2="77.7" stroke="#888" stroke-width="1"/>
<text x="61.0" y="81.7" font-size="11" font-family="Helvetica,Arial,sans-serif" text-anchor="end" fill="#222" font-weight="normal">150</text>
<line x1="70.0" y1="343.6" x2="790.0" y2="343.6" stroke="#888" stroke-width="1.5" stroke-dasharray="5 4"/>
<text x="76.0" y="339.6" font-size="10" font-family="Helvetica,Arial,sans-serif" text-anchor="start" fill="#888" font-weight="normal">break-even</text>
<polyline points="70.0,343.5 94.8,343.4 119.7,347.4 144.5,370.7 169.3,453.3 194.1,677.7 219.0,1193.4 243.8,2244.9 268.6,4206.5 293.4,7621.4 318.3,13246.4 343.1,22101.9 367.9,35526.6 392.8,55238.8 417.6,83401.1 442.4,122691.8 467.2,176381.1 492.1,248412.4 516.9,343488.7 541.7,467165.2 566.6,625945.7 591.4,827385.5 616.2,1080199.2 641.0,1394372.9 665.9,1781283.2 690.7,2253820.3 715.5,2826516.7 740.3,3515680.8 765.2,4339536.9 790.0,5318368.9" fill="none" stroke="#2c7fb8" stroke-width="2.2"/>
<polyline points="70.0,347.0 94.8,346.5 119.7,345.6 144.5,344.4 169.3,342.8 194.1,340.9 219.0,338.7 243.8,336.0 268.6,333.1 293.4,329.8 318.3,326.1 343.1,322.1 367.9,317.8 392.8,313.1 417.6,308.0 442.4,302.6 467.2,296.9 492.1,290.8 516.9,284.4 541.7,277.6 566.6,270.5 591.4,263.0 616.2,255.1 641.0,247.0 665.9,238.4 690.7,229.6 715.5,220.3 740.3,210.8 765.2,200.9 790.0,190.6" fill="none" stroke="#d95f02" stroke-width="2.2"/>
<text x="430.0" y="48.0" font-size="16" font-family="Helvetica,Arial,sans-serif" text-anchor="middle" fill="#222" font-weight="bold">Net power vs bubble size: how you pay to inflate it</text>
<text x="430.0" y="504.0" font-size="13" font-family="Helvetica,Arial,sans-serif" text-anchor="middle" fill="#222" font-weight="normal">bubble radius at 1 AU (km)</text>
<text x="18.0" y="255.0" font-size="13" font-family="Helvetica,Arial,sans-serif" text-anchor="middle" fill="#222" font-weight="normal" transform="rotate(-90 18 255.0)">net power (kW)</text>
<rect x="632.0" y="58.0" width="158.0" height="44.0" fill="#ffffffcc" stroke="#ddd" stroke-width="1"/>
<line x1="640.0" y1="72.0" x2="662.0" y2="72.0" stroke="#2c7fb8" stroke-width="3"/>
<text x="668.0" y="76.0" font-size="11" font-family="Helvetica,Arial,sans-serif" text-anchor="start" fill="#222" font-weight="normal">resistive coil (field bill ∝ R⁶)</text>
<line x1="640.0" y1="90.0" x2="662.0" y2="90.0" stroke="#d95f02" stroke-width="3"/>
<text x="668.0" y="94.0" font-size="11" font-family="Helvetica,Arial,sans-serif" text-anchor="start" fill="#222" font-weight="normal">superconducting (field held ~free)</text>
</svg>
