<svg xmlns="http://www.w3.org/2000/svg" width="820" height="520" viewBox="0 0 820 520">
<rect width="820" height="520" fill="#fafafa"/>
<rect x="70.0" y="60.0" width="720.0" height="390.0" fill="#fff" stroke="#ccc" stroke-width="1"/>
<line x1="135.5" y1="60.0" x2="135.5" y2="450.0" stroke="#eee" stroke-width="1"/>
<line x1="135.5" y1="450.0" x2="135.5" y2="455.0" stroke="#888" stroke-width="1"/>
<text x="135.5" y="468.0" font-size="11" font-family="Helvetica,Arial,sans-serif" text-anchor="middle" fill="#222" font-weight="normal">4.0</text>
<line x1="266.4" y1="60.0" x2="266.4" y2="450.0" stroke="#eee" stroke-width="1"/>
<line x1="266.4" y1="450.0" x2="266.4" y2="455.0" stroke="#888" stroke-width="1"/>
<text x="266.4" y="468.0" font-size="11" font-family="Helvetica,Arial,sans-serif" text-anchor="middle" fill="#222" font-weight="normal">6.0</text>
<line x1="397.3" y1="60.0" x2="397.3" y2="450.0" stroke="#eee" stroke-width="1"/>
<line x1="397.3" y1="450.0" x2="397.3" y2="455.0" stroke="#888" stroke-width="1"/>
<text x="397.3" y="468.0" font-size="11" font-family="Helvetica,Arial,sans-serif" text-anchor="middle" fill="#222" font-weight="normal">8.0</text>
<line x1="528.2" y1="60.0" x2="528.2" y2="450.0" stroke="#eee" stroke-width="1"/>
<line x1="528.2" y1="450.0" x2="528.2" y2="455.0" stroke="#888" stroke-width="1"/>
<text x="528.2" y="468.0" font-size="11" font-family="Helvetica,Arial,sans-serif" text-anchor="middle" fill="#222" font-weight="normal">10</text>
<line x1="659.1" y1="60.0" x2="659.1" y2="450.0" stroke="#eee" stroke-width="1"/>
<line x1="659.1" y1="450.0" x2="659.1" y2="455.0" stroke="#888" stroke-width="1"/>
<text x="659.1" y="468.0" font-size="11" font-family="Helvetica,Arial,sans-serif" text-anchor="middle" fill="#222" font-weight="normal">12</text>
<line x1="790.0" y1="60.0" x2="790.0" y2="450.0" stroke="#eee" stroke-width="1"/>
<line x1="790.0" y1="450.0" x2="790.0" y2="455.0" stroke="#888" stroke-width="1"/>
<text x="790.0" y="468.0" font-size="11" font-family="Helvetica,Arial,sans-serif" text-anchor="middle" fill="#222" font-weight="normal">14</text>
<line x1="70.0" y1="450.0" x2="790.0" y2="450.0" stroke="#eee" stroke-width="1"/>
<line x1="65.0" y1="450.0" x2="70.0" y2="450.0" stroke="#888" stroke-width="1"/>
<text x="61.0" y="454.0" font-size="11" font-family="Helvetica,Arial,sans-serif" text-anchor="end" fill="#222" font-weight="normal">-1,500</text>
<line x1="70.0" y1="341.7" x2="790.0" y2="341.7" stroke="#eee" stroke-width="1"/>
<line x1="65.0" y1="341.7" x2="70.0" y2="341.7" stroke="#888" stroke-width="1"/>
<text x="61.0" y="345.7" font-size="11" font-family="Helvetica,Arial,sans-serif" text-anchor="end" fill="#222" font-weight="normal">-1,000</text>
<line x1="70.0" y1="233.3" x2="790.0" y2="233.3" stroke="#eee" stroke-width="1"/>
<line x1="65.0" y1="233.3" x2="70.0" y2="233.3" stroke="#888" stroke-width="1"/>
<text x="61.0" y="237.3" font-size="11" font-family="Helvetica,Arial,sans-serif" text-anchor="end" fill="#222" font-weight="normal">-500</text>
<line x1="70.0" y1="125.0" x2="790.0" y2="125.0" stroke="#eee" stroke-width="1"/>
<line x1="65.0" y1="125.0" x2="70.0" y2="125.0" stroke="#888" stroke-width="1"/>
<text x="61.0" y="129.0" font-size="11" font-family="Helvetica,Arial,sans-serif" text-anchor="end" fill="#222" font-weight="normal">0</text>
<line x1="70.0" y1="125.0" x2="790.0" y2="125.0" stroke="#888" stroke-width="1.5" stroke-dasharray="5 4"/>
<text x="76.0" y="121.0" font-size="10" font-family="Helvetica,Arial,sans-serif" text-anchor="start" fill="#888" font-weight="normal">break-even</text>
<line x1="424.5" y1="60.0" x2="424.5" y2="450.0" stroke="#c0392b" stroke-width="1.5" stroke-dasharray="5 4"/>
<text x="428.5" y="72.0" font-size="10" font-family="Helvetica,Arial,sans-serif" text-anchor="start" fill="#c0392b" font-weight="normal">optimum ~8 km</text>
<polyline points="70.0,117.4 102.7,114.7 135.5,111.6 168.2,108.2 200.9,104.6 233.6,100.8 266.4,97.0 299.1,93.4 331.8,90.0 364.5,87.3 397.3,85.5 430.0,85.1 462.7,86.4 495.5,90.2 528.2,97.0 560.9,107.7 593.6,123.2 626.4,144.5 659.1,172.9 691.8,209.8 724.5,256.7 757.3,315.4 790.0,387.9" fill="none" stroke="#2c7fb8" stroke-width="2.2"/>
<circle cx="70.0" cy="117.4" r="2.6" fill="#2c7fb8"/>
<circle cx="102.7" cy="114.7" r="2.6" fill="#2c7fb8"/>
<circle cx="135.5" cy="111.6" r="2.6" fill="#2c7fb8"/>
<circle cx="168.2" cy="108.2" r="2.6" fill="#2c7fb8"/>
<circle cx="200.9" cy="104.6" r="2.6" fill="#2c7fb8"/>
<circle cx="233.6" cy="100.8" r="2.6" fill="#2c7fb8"/>
<circle cx="266.4" cy="97.0" r="2.6" fill="#2c7fb8"/>
<circle cx="299.1" cy="93.4" r="2.6" fill="#2c7fb8"/>
<circle cx="331.8" cy="90.0" r="2.6" fill="#2c7fb8"/>
<circle cx="364.5" cy="87.3" r="2.6" fill="#2c7fb8"/>
<circle cx="397.3" cy="85.5" r="2.6" fill="#2c7fb8"/>
<circle cx="430.0" cy="85.1" r="2.6" fill="#2c7fb8"/>
<circle cx="462.7" cy="86.4" r="2.6" fill="#2c7fb8"/>
<circle cx="495.5" cy="90.2" r="2.6" fill="#2c7fb8"/>
<circle cx="528.2" cy="97.0" r="2.6" fill="#2c7fb8"/>
<circle cx="560.9" cy="107.7" r="2.6" fill="#2c7fb8"/>
<circle cx="593.6" cy="123.2" r="2.6" fill="#2c7fb8"/>
<circle cx="626.4" cy="144.5" r="2.6" fill="#2c7fb8"/>
<circle cx="659.1" cy="172.9" r="2.6" fill="#2c7fb8"/>
<circle cx="691.8" cy="209.8" r="2.6" fill="#2c7fb8"/>
<circle cx="724.5" cy="256.7" r="2.6" fill="#2c7fb8"/>
<circle cx="757.3" cy="315.4" r="2.6" fill="#2c7fb8"/>
<circle cx="790.0" cy="387.9" r="2.6" fill="#2c7fb8"/>
<text x="430.0" y="48.0" font-size="16" font-family="Helvetica,Arial,sans-serif" text-anchor="middle" fill="#222" font-weight="bold">Optimal bubble size (resistive coil): net peaks, then craters</text>
<text x="430.0" y="504.0" font-size="13" font-family="Helvetica,Arial,sans-serif" text-anchor="middle" fill="#222" font-weight="normal">bubble radius at 1 AU (km)</text>
<text x="18.0" y="255.0" font-size="13" font-family="Helvetica,Arial,sans-serif" text-anchor="middle" fill="#222" font-weight="normal" transform="rotate(-90 18 255.0)">net power (W)</text>
</svg>
