<svg xmlns="http://www.w3.org/2000/svg" width="820" height="520" viewBox="0 0 820 520">
<rect width="820" height="520" fill="#fafafa"/>
<rect x="70.0" y="60.0" width="720.0" height="390.0" fill="#fff" stroke="#ccc" stroke-width="1"/>
<line x1="169.3" y1="60.0" x2="169.3" y2="450.0" stroke="#eee" stroke-width="1"/>
<line x1="169.3" y1="450.0" x2="169.3" y2="455.0" stroke="#888" stroke-width="1"/>
<text x="169.3" y="468.0" font-size="11" font-family="Helvetica,Arial,sans-serif" text-anchor="middle" fill="#222" font-weight="normal">50</text>
<line x1="293.4" y1="60.0" x2="293.4" y2="450.0" stroke="#eee" stroke-width="1"/>
<line x1="293.4" y1="450.0" x2="293.4" y2="455.0" stroke="#888" stroke-width="1"/>
<text x="293.4" y="468.0" font-size="11" font-family="Helvetica,Arial,sans-serif" text-anchor="middle" fill="#222" font-weight="normal">100</text>
<line x1="417.6" y1="60.0" x2="417.6" y2="450.0" stroke="#eee" stroke-width="1"/>
<line x1="417.6" y1="450.0" x2="417.6" y2="455.0" stroke="#888" stroke-width="1"/>
<text x="417.6" y="468.0" font-size="11" font-family="Helvetica,Arial,sans-serif" text-anchor="middle" fill="#222" font-weight="normal">150</text>
<line x1="541.7" y1="60.0" x2="541.7" y2="450.0" stroke="#eee" stroke-width="1"/>
<line x1="541.7" y1="450.0" x2="541.7" y2="455.0" stroke="#888" stroke-width="1"/>
<text x="541.7" y="468.0" font-size="11" font-family="Helvetica,Arial,sans-serif" text-anchor="middle" fill="#222" font-weight="normal">200</text>
<line x1="665.9" y1="60.0" x2="665.9" y2="450.0" stroke="#eee" stroke-width="1"/>
<line x1="665.9" y1="450.0" x2="665.9" y2="455.0" stroke="#888" stroke-width="1"/>
<text x="665.9" y="468.0" font-size="11" font-family="Helvetica,Arial,sans-serif" text-anchor="middle" fill="#222" font-weight="normal">250</text>
<line x1="790.0" y1="60.0" x2="790.0" y2="450.0" stroke="#eee" stroke-width="1"/>
<line x1="790.0" y1="450.0" x2="790.0" y2="455.0" stroke="#888" stroke-width="1"/>
<text x="790.0" y="468.0" font-size="11" font-family="Helvetica,Arial,sans-serif" text-anchor="middle" fill="#222" font-weight="normal">300</text>
<line x1="70.0" y1="431.4" x2="790.0" y2="431.4" stroke="#eee" stroke-width="1"/>
<line x1="65.0" y1="431.4" x2="70.0" y2="431.4" stroke="#888" stroke-width="1"/>
<text x="61.0" y="435.4" font-size="11" font-family="Helvetica,Arial,sans-serif" text-anchor="end" fill="#222" font-weight="normal">0</text>
<line x1="70.0" y1="338.6" x2="790.0" y2="338.6" stroke="#eee" stroke-width="1"/>
<line x1="65.0" y1="338.6" x2="70.0" y2="338.6" stroke="#888" stroke-width="1"/>
<text x="61.0" y="342.6" font-size="11" font-family="Helvetica,Arial,sans-serif" text-anchor="end" fill="#222" font-weight="normal">100</text>
<line x1="70.0" y1="245.7" x2="790.0" y2="245.7" stroke="#eee" stroke-width="1"/>
<line x1="65.0" y1="245.7" x2="70.0" y2="245.7" stroke="#888" stroke-width="1"/>
<text x="61.0" y="249.7" font-size="11" font-family="Helvetica,Arial,sans-serif" text-anchor="end" fill="#222" font-weight="normal">200</text>
<line x1="70.0" y1="152.9" x2="790.0" y2="152.9" stroke="#eee" stroke-width="1"/>
<line x1="65.0" y1="152.9" x2="70.0" y2="152.9" stroke="#888" stroke-width="1"/>
<text x="61.0" y="156.9" font-size="11" font-family="Helvetica,Arial,sans-serif" text-anchor="end" fill="#222" font-weight="normal">300</text>
<line x1="70.0" y1="60.0" x2="790.0" y2="60.0" stroke="#eee" stroke-width="1"/>
<line x1="65.0" y1="60.0" x2="70.0" y2="60.0" stroke="#888" stroke-width="1"/>
<text x="61.0" y="64.0" font-size="11" font-family="Helvetica,Arial,sans-serif" text-anchor="end" fill="#222" font-weight="normal">400</text>
<line x1="70.0" y1="431.4" x2="790.0" y2="431.4" stroke="#888" stroke-width="1.5" stroke-dasharray="5 4"/>
<text x="76.0" y="427.4" font-size="10" font-family="Helvetica,Arial,sans-serif" text-anchor="start" fill="#888" font-weight="normal"></text>
<line x1="100.9" y1="60.0" x2="100.9" y2="450.0" stroke="#c0392b" stroke-width="1.5" stroke-dasharray="5 4"/>
<text x="104.9" y="72.0" font-size="10" font-family="Helvetica,Arial,sans-serif" text-anchor="start" fill="#c0392b" font-weight="normal">break-even ~22 km</text>
<polyline points="70.0,432.9 94.8,431.8 119.7,430.0 144.5,427.5 169.3,424.2 194.1,420.2 219.0,415.4 243.8,410.0 268.6,403.8 293.4,396.8 318.3,389.2 343.1,380.8 367.9,371.7 392.8,361.8 417.6,351.3 442.4,340.0 467.2,327.9 492.1,315.2 516.9,301.7 541.7,287.5 566.6,272.5 591.4,256.8 616.2,240.4 641.0,223.3 665.9,205.4 690.7,186.8 715.5,167.5 740.3,147.5 765.2,126.7 790.0,105.2" fill="none" stroke="#2c7fb8" stroke-width="2.2"/>
<circle cx="70.0" cy="432.9" r="2.6" fill="#2c7fb8"/>
<circle cx="94.8" cy="431.8" r="2.6" fill="#2c7fb8"/>
<circle cx="119.7" cy="430.0" r="2.6" fill="#2c7fb8"/>
<circle cx="144.5" cy="427.5" r="2.6" fill="#2c7fb8"/>
<circle cx="169.3" cy="424.2" r="2.6" fill="#2c7fb8"/>
<circle cx="194.1" cy="420.2" r="2.6" fill="#2c7fb8"/>
<circle cx="219.0" cy="415.4" r="2.6" fill="#2c7fb8"/>
<circle cx="243.8" cy="410.0" r="2.6" fill="#2c7fb8"/>
<circle cx="268.6" cy="403.8" r="2.6" fill="#2c7fb8"/>
<circle cx="293.4" cy="396.8" r="2.6" fill="#2c7fb8"/>
<circle cx="318.3" cy="389.2" r="2.6" fill="#2c7fb8"/>
<circle cx="343.1" cy="380.8" r="2.6" fill="#2c7fb8"/>
<circle cx="367.9" cy="371.7" r="2.6" fill="#2c7fb8"/>
<circle cx="392.8" cy="361.8" r="2.6" fill="#2c7fb8"/>
<circle cx="417.6" cy="351.3" r="2.6" fill="#2c7fb8"/>
<circle cx="442.4" cy="340.0" r="2.6" fill="#2c7fb8"/>
<circle cx="467.2" cy="327.9" r="2.6" fill="#2c7fb8"/>
<circle cx="492.1" cy="315.2" r="2.6" fill="#2c7fb8"/>
<circle cx="516.9" cy="301.7" r="2.6" fill="#2c7fb8"/>
<circle cx="541.7" cy="287.5" r="2.6" fill="#2c7fb8"/>
<circle cx="566.6" cy="272.5" r="2.6" fill="#2c7fb8"/>
<circle cx="591.4" cy="256.8" r="2.6" fill="#2c7fb8"/>
<circle cx="616.2" cy="240.4" r="2.6" fill="#2c7fb8"/>
<circle cx="641.0" cy="223.3" r="2.6" fill="#2c7fb8"/>
<circle cx="665.9" cy="205.4" r="2.6" fill="#2c7fb8"/>
<circle cx="690.7" cy="186.8" r="2.6" fill="#2c7fb8"/>
<circle cx="715.5" cy="167.5" r="2.6" fill="#2c7fb8"/>
<circle cx="740.3" cy="147.5" r="2.6" fill="#2c7fb8"/>
<circle cx="765.2" cy="126.7" r="2.6" fill="#2c7fb8"/>
<circle cx="790.0" cy="105.2" r="2.6" fill="#2c7fb8"/>
<text x="430.0" y="48.0" font-size="16" font-family="Helvetica,Arial,sans-serif" text-anchor="middle" fill="#222" font-weight="bold">Net power vs bubble size (superconducting): bigger is better</text>
<text x="430.0" y="504.0" font-size="13" font-family="Helvetica,Arial,sans-serif" text-anchor="middle" fill="#222" font-weight="normal">bubble radius at 1 AU (km)</text>
<text x="18.0" y="255.0" font-size="13" font-family="Helvetica,Arial,sans-serif" text-anchor="middle" fill="#222" font-weight="normal" transform="rotate(-90 18 255.0)">net power (kW)</text>
</svg>
