<svg xmlns="http://www.w3.org/2000/svg" width="820" height="520" viewBox="0 0 820 520">
<rect width="820" height="520" fill="#fafafa"/>
<rect x="70.0" y="60.0" width="720.0" height="390.0" fill="#fff" stroke="#ccc" stroke-width="1"/>
<line x1="241.5" y1="60.0" x2="241.5" y2="450.0" stroke="#eee" stroke-width="1"/>
<line x1="241.5" y1="450.0" x2="241.5" y2="455.0" stroke="#888" stroke-width="1"/>
<text x="241.5" y="468.0" font-size="11" font-family="Helvetica,Arial,sans-serif" text-anchor="middle" fill="#222" font-weight="normal">5.0</text>
<line x1="444.4" y1="60.0" x2="444.4" y2="450.0" stroke="#eee" stroke-width="1"/>
<line x1="444.4" y1="450.0" x2="444.4" y2="455.0" stroke="#888" stroke-width="1"/>
<text x="444.4" y="468.0" font-size="11" font-family="Helvetica,Arial,sans-serif" text-anchor="middle" fill="#222" font-weight="normal">10</text>
<line x1="647.3" y1="60.0" x2="647.3" y2="450.0" stroke="#eee" stroke-width="1"/>
<line x1="647.3" y1="450.0" x2="647.3" y2="455.0" stroke="#888" stroke-width="1"/>
<text x="647.3" y="468.0" font-size="11" font-family="Helvetica,Arial,sans-serif" text-anchor="middle" fill="#222" font-weight="normal">15</text>
<line x1="70.0" y1="450.0" x2="790.0" y2="450.0" stroke="#eee" stroke-width="1"/>
<line x1="65.0" y1="450.0" x2="70.0" y2="450.0" stroke="#888" stroke-width="1"/>
<text x="61.0" y="454.0" font-size="11" font-family="Helvetica,Arial,sans-serif" text-anchor="end" fill="#222" font-weight="normal">0</text>
<line x1="70.0" y1="338.6" x2="790.0" y2="338.6" stroke="#eee" stroke-width="1"/>
<line x1="65.0" y1="338.6" x2="70.0" y2="338.6" stroke="#888" stroke-width="1"/>
<text x="61.0" y="342.6" font-size="11" font-family="Helvetica,Arial,sans-serif" text-anchor="end" fill="#222" font-weight="normal">200</text>
<line x1="70.0" y1="227.1" x2="790.0" y2="227.1" stroke="#eee" stroke-width="1"/>
<line x1="65.0" y1="227.1" x2="70.0" y2="227.1" stroke="#888" stroke-width="1"/>
<text x="61.0" y="231.1" font-size="11" font-family="Helvetica,Arial,sans-serif" text-anchor="end" fill="#222" font-weight="normal">400</text>
<line x1="70.0" y1="115.7" x2="790.0" y2="115.7" stroke="#eee" stroke-width="1"/>
<line x1="65.0" y1="115.7" x2="70.0" y2="115.7" stroke="#888" stroke-width="1"/>
<text x="61.0" y="119.7" font-size="11" font-family="Helvetica,Arial,sans-serif" text-anchor="end" fill="#222" font-weight="normal">600</text>
<line x1="70.0" y1="227.1" x2="790.0" y2="227.1" stroke="#c0392b" stroke-width="1.5" stroke-dasharray="5 4"/>
<text x="76.0" y="223.1" font-size="10" font-family="Helvetica,Arial,sans-serif" text-anchor="start" fill="#c0392b" font-weight="normal">400 m/s budget</text>
<line x1="282.1" y1="60.0" x2="282.1" y2="450.0" stroke="#c0392b" stroke-width="1.5" stroke-dasharray="5 4"/>
<text x="286.1" y="72.0" font-size="10" font-family="Helvetica,Arial,sans-serif" text-anchor="start" fill="#c0392b" font-weight="normal">6 h clock</text>
<polyline points="98.8,326.3 161.6,389.5 224.5,409.9 287.3,420.1 350.1,426.1 413.0,430.1 475.8,433.0 538.7,435.1 601.5,436.8 664.3,438.1 727.2,439.2 790.0,440.1" fill="none" stroke="#2c7fb8" stroke-width="2.2"/>
<circle cx="98.8" cy="326.3" r="2.6" fill="#2c7fb8"/>
<circle cx="161.6" cy="389.5" r="2.6" fill="#2c7fb8"/>
<circle cx="224.5" cy="409.9" r="2.6" fill="#2c7fb8"/>
<circle cx="287.3" cy="420.1" r="2.6" fill="#2c7fb8"/>
<circle cx="350.1" cy="426.1" r="2.6" fill="#2c7fb8"/>
<circle cx="413.0" cy="430.1" r="2.6" fill="#2c7fb8"/>
<circle cx="475.8" cy="433.0" r="2.6" fill="#2c7fb8"/>
<circle cx="538.7" cy="435.1" r="2.6" fill="#2c7fb8"/>
<circle cx="601.5" cy="436.8" r="2.6" fill="#2c7fb8"/>
<circle cx="664.3" cy="438.1" r="2.6" fill="#2c7fb8"/>
<circle cx="727.2" cy="439.2" r="2.6" fill="#2c7fb8"/>
<circle cx="790.0" cy="440.1" r="2.6" fill="#2c7fb8"/>
<polyline points="94.4,94.0 157.3,282.6 220.1,340.6 282.9,368.7 345.8,385.3 408.6,396.3 471.5,404.1 534.3,409.9 597.1,414.4 660.0,418.0 722.8,421.0 785.6,423.4" fill="none" stroke="#d95f02" stroke-width="2.2"/>
<circle cx="94.4" cy="94.0" r="2.6" fill="#d95f02"/>
<circle cx="157.3" cy="282.6" r="2.6" fill="#d95f02"/>
<circle cx="220.1" cy="340.6" r="2.6" fill="#d95f02"/>
<circle cx="282.9" cy="368.7" r="2.6" fill="#d95f02"/>
<circle cx="345.8" cy="385.3" r="2.6" fill="#d95f02"/>
<circle cx="408.6" cy="396.3" r="2.6" fill="#d95f02"/>
<circle cx="471.5" cy="404.1" r="2.6" fill="#d95f02"/>
<circle cx="534.3" cy="409.9" r="2.6" fill="#d95f02"/>
<circle cx="597.1" cy="414.4" r="2.6" fill="#d95f02"/>
<circle cx="660.0" cy="418.0" r="2.6" fill="#d95f02"/>
<circle cx="722.8" cy="421.0" r="2.6" fill="#d95f02"/>
<circle cx="785.6" cy="423.4" r="2.6" fill="#d95f02"/>
<polyline points="80.5,-997.1 143.3,-120.6 206.1,94.0 269.0,191.2 331.8,246.7 394.7,282.6 457.5,307.7 520.3,326.3 583.2,340.6 646.0,351.9 708.8,361.1 771.7,368.7" fill="none" stroke="#1b9e77" stroke-width="2.2"/>
<circle cx="80.5" cy="-997.1" r="2.6" fill="#1b9e77"/>
<circle cx="143.3" cy="-120.6" r="2.6" fill="#1b9e77"/>
<circle cx="206.1" cy="94.0" r="2.6" fill="#1b9e77"/>
<circle cx="269.0" cy="191.2" r="2.6" fill="#1b9e77"/>
<circle cx="331.8" cy="246.7" r="2.6" fill="#1b9e77"/>
<circle cx="394.7" cy="282.6" r="2.6" fill="#1b9e77"/>
<circle cx="457.5" cy="307.7" r="2.6" fill="#1b9e77"/>
<circle cx="520.3" cy="326.3" r="2.6" fill="#1b9e77"/>
<circle cx="583.2" cy="340.6" r="2.6" fill="#1b9e77"/>
<circle cx="646.0" cy="351.9" r="2.6" fill="#1b9e77"/>
<circle cx="708.8" cy="361.1" r="2.6" fill="#1b9e77"/>
<circle cx="771.7" cy="368.7" r="2.6" fill="#1b9e77"/>
<polyline points="70.0,-2602.4 132.8,-505.6 195.7,-120.6 258.5,43.0 321.3,133.6 384.2,191.2 447.0,231.1 509.9,260.3 572.7,282.6 635.5,300.2 698.4,314.5 761.2,326.3" fill="none" stroke="#7570b3" stroke-width="2.2"/>
<circle cx="70.0" cy="-2602.4" r="2.6" fill="#7570b3"/>
<circle cx="132.8" cy="-505.6" r="2.6" fill="#7570b3"/>
<circle cx="195.7" cy="-120.6" r="2.6" fill="#7570b3"/>
<circle cx="258.5" cy="43.0" r="2.6" fill="#7570b3"/>
<circle cx="321.3" cy="133.6" r="2.6" fill="#7570b3"/>
<circle cx="384.2" cy="191.2" r="2.6" fill="#7570b3"/>
<circle cx="447.0" cy="231.1" r="2.6" fill="#7570b3"/>
<circle cx="509.9" cy="260.3" r="2.6" fill="#7570b3"/>
<circle cx="572.7" cy="282.6" r="2.6" fill="#7570b3"/>
<circle cx="635.5" cy="300.2" r="2.6" fill="#7570b3"/>
<circle cx="698.4" cy="314.5" r="2.6" fill="#7570b3"/>
<circle cx="761.2" cy="326.3" r="2.6" fill="#7570b3"/>
<text x="430.0" y="48.0" font-size="16" font-family="Helvetica,Arial,sans-serif" text-anchor="middle" fill="#222" font-weight="bold">Phasing tradeoff (LEO): Δv vs time to rendezvous</text>
<text x="430.0" y="504.0" font-size="13" font-family="Helvetica,Arial,sans-serif" text-anchor="middle" fill="#222" font-weight="normal">catch-up time (hours)</text>
<text x="18.0" y="255.0" font-size="13" font-family="Helvetica,Arial,sans-serif" text-anchor="middle" fill="#222" font-weight="normal" transform="rotate(-90 18 255.0)">Δv required (m/s)</text>
<rect x="632.0" y="58.0" width="158.0" height="80.0" fill="#ffffffcc" stroke="#ddd" stroke-width="1"/>
<line x1="640.0" y1="72.0" x2="662.0" y2="72.0" stroke="#2c7fb8" stroke-width="3"/>
<text x="668.0" y="76.0" font-size="11" font-family="Helvetica,Arial,sans-serif" text-anchor="start" fill="#222" font-weight="normal">15° gap</text>
<line x1="640.0" y1="90.0" x2="662.0" y2="90.0" stroke="#d95f02" stroke-width="3"/>
<text x="668.0" y="94.0" font-size="11" font-family="Helvetica,Arial,sans-serif" text-anchor="start" fill="#222" font-weight="normal">40° gap</text>
<line x1="640.0" y1="108.0" x2="662.0" y2="108.0" stroke="#1b9e77" stroke-width="3"/>
<text x="668.0" y="112.0" font-size="11" font-family="Helvetica,Arial,sans-serif" text-anchor="start" fill="#222" font-weight="normal">120° gap</text>
<line x1="640.0" y1="126.0" x2="662.0" y2="126.0" stroke="#7570b3" stroke-width="3"/>
<text x="668.0" y="130.0" font-size="11" font-family="Helvetica,Arial,sans-serif" text-anchor="start" fill="#222" font-weight="normal">180° gap</text>
</svg>
