<svg xmlns="http://www.w3.org/2000/svg" width="820" height="520" viewBox="0 0 820 520">
<rect width="820" height="520" fill="#fafafa"/>
<rect x="70.0" y="60.0" width="720.0" height="390.0" fill="#fff" stroke="#ccc" stroke-width="1"/>
<line x1="117.1" y1="60.0" x2="117.1" y2="450.0" stroke="#eee" stroke-width="1"/>
<line x1="117.1" y1="450.0" x2="117.1" y2="455.0" stroke="#888" stroke-width="1"/>
<text x="117.1" y="468.0" font-size="11" font-family="Helvetica,Arial,sans-serif" text-anchor="middle" fill="#222" font-weight="normal">0.40</text>
<line x1="276.1" y1="60.0" x2="276.1" y2="450.0" stroke="#eee" stroke-width="1"/>
<line x1="276.1" y1="450.0" x2="276.1" y2="455.0" stroke="#888" stroke-width="1"/>
<text x="276.1" y="468.0" font-size="11" font-family="Helvetica,Arial,sans-serif" text-anchor="middle" fill="#222" font-weight="normal">0.50</text>
<line x1="435.2" y1="60.0" x2="435.2" y2="450.0" stroke="#eee" stroke-width="1"/>
<line x1="435.2" y1="450.0" x2="435.2" y2="455.0" stroke="#888" stroke-width="1"/>
<text x="435.2" y="468.0" font-size="11" font-family="Helvetica,Arial,sans-serif" text-anchor="middle" fill="#222" font-weight="normal">0.60</text>
<line x1="594.2" y1="60.0" x2="594.2" y2="450.0" stroke="#eee" stroke-width="1"/>
<line x1="594.2" y1="450.0" x2="594.2" y2="455.0" stroke="#888" stroke-width="1"/>
<text x="594.2" y="468.0" font-size="11" font-family="Helvetica,Arial,sans-serif" text-anchor="middle" fill="#222" font-weight="normal">0.70</text>
<line x1="753.3" y1="60.0" x2="753.3" y2="450.0" stroke="#eee" stroke-width="1"/>
<line x1="753.3" y1="450.0" x2="753.3" y2="455.0" stroke="#888" stroke-width="1"/>
<text x="753.3" y="468.0" font-size="11" font-family="Helvetica,Arial,sans-serif" text-anchor="middle" fill="#222" font-weight="normal">0.80</text>
<line x1="70.0" y1="450.0" x2="790.0" y2="450.0" stroke="#eee" stroke-width="1"/>
<line x1="65.0" y1="450.0" x2="70.0" y2="450.0" stroke="#888" stroke-width="1"/>
<text x="61.0" y="454.0" font-size="11" font-family="Helvetica,Arial,sans-serif" text-anchor="end" fill="#222" font-weight="normal">0</text>
<line x1="70.0" y1="382.9" x2="790.0" y2="382.9" stroke="#eee" stroke-width="1"/>
<line x1="65.0" y1="382.9" x2="70.0" y2="382.9" stroke="#888" stroke-width="1"/>
<text x="61.0" y="386.9" font-size="11" font-family="Helvetica,Arial,sans-serif" text-anchor="end" fill="#222" font-weight="normal">2,500</text>
<line x1="70.0" y1="315.8" x2="790.0" y2="315.8" stroke="#eee" stroke-width="1"/>
<line x1="65.0" y1="315.8" x2="70.0" y2="315.8" stroke="#888" stroke-width="1"/>
<text x="61.0" y="319.8" font-size="11" font-family="Helvetica,Arial,sans-serif" text-anchor="end" fill="#222" font-weight="normal">5,000</text>
<line x1="70.0" y1="248.7" x2="790.0" y2="248.7" stroke="#eee" stroke-width="1"/>
<line x1="65.0" y1="248.7" x2="70.0" y2="248.7" stroke="#888" stroke-width="1"/>
<text x="61.0" y="252.7" font-size="11" font-family="Helvetica,Arial,sans-serif" text-anchor="end" fill="#222" font-weight="normal">7,500</text>
<line x1="70.0" y1="181.5" x2="790.0" y2="181.5" stroke="#eee" stroke-width="1"/>
<line x1="65.0" y1="181.5" x2="70.0" y2="181.5" stroke="#888" stroke-width="1"/>
<text x="61.0" y="185.5" font-size="11" font-family="Helvetica,Arial,sans-serif" text-anchor="end" fill="#222" font-weight="normal">10,000</text>
<line x1="70.0" y1="114.4" x2="790.0" y2="114.4" stroke="#eee" stroke-width="1"/>
<line x1="65.0" y1="114.4" x2="70.0" y2="114.4" stroke="#888" stroke-width="1"/>
<text x="61.0" y="118.4" font-size="11" font-family="Helvetica,Arial,sans-serif" text-anchor="end" fill="#222" font-weight="normal">12,500</text>
<line x1="70.0" y1="441.5" x2="790.0" y2="441.5" stroke="#27ae60" stroke-width="1.5" stroke-dasharray="5 4"/>
<text x="76.0" y="437.5" font-size="10" font-family="Helvetica,Arial,sans-serif" text-anchor="start" fill="#27ae60" font-weight="normal">Hohmann floor 318 m/s</text>
<polyline points="70.0,88.9 135.5,152.9 200.9,205.8 266.4,250.3 331.8,288.3 397.3,321.2 462.7,350.0 528.2,375.3 593.6,397.7 659.1,417.5 790.0,440.7" fill="none" stroke="#2c7fb8" stroke-width="2.2"/>
<circle cx="70.0" cy="88.9" r="2.6" fill="#2c7fb8"/>
<circle cx="135.5" cy="152.9" r="2.6" fill="#2c7fb8"/>
<circle cx="200.9" cy="205.8" r="2.6" fill="#2c7fb8"/>
<circle cx="266.4" cy="250.3" r="2.6" fill="#2c7fb8"/>
<circle cx="331.8" cy="288.3" r="2.6" fill="#2c7fb8"/>
<circle cx="397.3" cy="321.2" r="2.6" fill="#2c7fb8"/>
<circle cx="462.7" cy="350.0" r="2.6" fill="#2c7fb8"/>
<circle cx="528.2" cy="375.3" r="2.6" fill="#2c7fb8"/>
<circle cx="593.6" cy="397.7" r="2.6" fill="#2c7fb8"/>
<circle cx="659.1" cy="417.5" r="2.6" fill="#2c7fb8"/>
<circle cx="790.0" cy="440.7" r="2.6" fill="#2c7fb8"/>
<text x="430.0" y="48.0" font-size="16" font-family="Helvetica,Arial,sans-serif" text-anchor="middle" fill="#222" font-weight="bold">Cross-orbit intercept (600 km gap): Δv vs transfer time</text>
<text x="430.0" y="504.0" font-size="13" font-family="Helvetica,Arial,sans-serif" text-anchor="middle" fill="#222" font-weight="normal">transfer time (hours)</text>
<text x="18.0" y="255.0" font-size="13" font-family="Helvetica,Arial,sans-serif" text-anchor="middle" fill="#222" font-weight="normal" transform="rotate(-90 18 255.0)">Δv required (m/s)</text>
</svg>
