<svg xmlns="http://www.w3.org/2000/svg" width="890" height="520" viewBox="0 0 890 520">
<rect width="890" height="520" fill="#fafafa"/>
<rect x="70.0" y="403.3" width="38.3" height="47.2" fill="#ddd" stroke="none" stroke-width="0"/>
<rect x="107.8" y="403.3" width="38.3" height="47.2" fill="#ddd" stroke="none" stroke-width="0"/>
<rect x="145.6" y="403.3" width="38.3" height="47.2" fill="#ddd" stroke="none" stroke-width="0"/>
<rect x="183.3" y="403.3" width="38.3" height="47.2" fill="#ddd" stroke="none" stroke-width="0"/>
<rect x="221.1" y="403.3" width="38.3" height="47.2" fill="#ddd" stroke="none" stroke-width="0"/>
<rect x="258.9" y="403.3" width="38.3" height="47.2" fill="#ddd" stroke="none" stroke-width="0"/>
<rect x="296.7" y="403.3" width="38.3" height="47.2" fill="#ddd" stroke="none" stroke-width="0"/>
<rect x="334.4" y="403.3" width="38.3" height="47.2" fill="#ddd" stroke="none" stroke-width="0"/>
<rect x="372.2" y="403.3" width="38.3" height="47.2" fill="#ddd" stroke="none" stroke-width="0"/>
<rect x="410.0" y="403.3" width="38.3" height="47.2" fill="#ddd" stroke="none" stroke-width="0"/>
<rect x="447.8" y="403.3" width="38.3" height="47.2" fill="#ddd" stroke="none" stroke-width="0"/>
<rect x="485.6" y="403.3" width="38.3" height="47.2" fill="#ddd" stroke="none" stroke-width="0"/>
<rect x="523.3" y="403.3" width="38.3" height="47.2" fill="#fde725" stroke="none" stroke-width="0"/>
<rect x="561.1" y="403.3" width="38.3" height="47.2" fill="#fde725" stroke="none" stroke-width="0"/>
<rect x="598.9" y="403.3" width="38.3" height="47.2" fill="#fde725" stroke="none" stroke-width="0"/>
<rect x="636.7" y="403.3" width="38.3" height="47.2" fill="#fde725" stroke="none" stroke-width="0"/>
<rect x="674.4" y="403.3" width="38.3" height="47.2" fill="#fde725" stroke="none" stroke-width="0"/>
<rect x="712.2" y="403.3" width="38.3" height="47.2" fill="#fde725" stroke="none" stroke-width="0"/>
<rect x="70.0" y="356.7" width="38.3" height="47.2" fill="#3e3879" stroke="none" stroke-width="0"/>
<rect x="107.8" y="356.7" width="38.3" height="47.2" fill="#2f6f8b" stroke="none" stroke-width="0"/>
<rect x="145.6" y="356.7" width="38.3" height="47.2" fill="#33a280" stroke="none" stroke-width="0"/>
<rect x="183.3" y="356.7" width="38.3" height="47.2" fill="#7bce57" stroke="none" stroke-width="0"/>
<rect x="221.1" y="356.7" width="38.3" height="47.2" fill="#fde725" stroke="none" stroke-width="0"/>
<rect x="258.9" y="356.7" width="38.3" height="47.2" fill="#fde725" stroke="none" stroke-width="0"/>
<rect x="296.7" y="356.7" width="38.3" height="47.2" fill="#fde725" stroke="none" stroke-width="0"/>
<rect x="334.4" y="356.7" width="38.3" height="47.2" fill="#fde725" stroke="none" stroke-width="0"/>
<rect x="372.2" y="356.7" width="38.3" height="47.2" fill="#fde725" stroke="none" stroke-width="0"/>
<rect x="410.0" y="356.7" width="38.3" height="47.2" fill="#fde725" stroke="none" stroke-width="0"/>
<rect x="447.8" y="356.7" width="38.3" height="47.2" fill="#fde725" stroke="none" stroke-width="0"/>
<rect x="485.6" y="356.7" width="38.3" height="47.2" fill="#fde725" stroke="none" stroke-width="0"/>
<rect x="523.3" y="356.7" width="38.3" height="47.2" fill="#fde725" stroke="none" stroke-width="0"/>
<rect x="561.1" y="356.7" width="38.3" height="47.2" fill="#fde725" stroke="none" stroke-width="0"/>
<rect x="598.9" y="356.7" width="38.3" height="47.2" fill="#fde725" stroke="none" stroke-width="0"/>
<rect x="636.7" y="356.7" width="38.3" height="47.2" fill="#fde725" stroke="none" stroke-width="0"/>
<rect x="674.4" y="356.7" width="38.3" height="47.2" fill="#fde725" stroke="none" stroke-width="0"/>
<rect x="712.2" y="356.7" width="38.3" height="47.2" fill="#fde725" stroke="none" stroke-width="0"/>
<rect x="70.0" y="310.0" width="38.3" height="47.2" fill="#3e3879" stroke="none" stroke-width="0"/>
<rect x="107.8" y="310.0" width="38.3" height="47.2" fill="#2f6f8b" stroke="none" stroke-width="0"/>
<rect x="145.6" y="310.0" width="38.3" height="47.2" fill="#39568b" stroke="none" stroke-width="0"/>
<rect x="183.3" y="310.0" width="38.3" height="47.2" fill="#2f6f8b" stroke="none" stroke-width="0"/>
<rect x="221.1" y="310.0" width="38.3" height="47.2" fill="#24898c" stroke="none" stroke-width="0"/>
<rect x="258.9" y="310.0" width="38.3" height="47.2" fill="#33a280" stroke="none" stroke-width="0"/>
<rect x="296.7" y="310.0" width="38.3" height="47.2" fill="#4eba6d" stroke="none" stroke-width="0"/>
<rect x="334.4" y="310.0" width="38.3" height="47.2" fill="#7bce57" stroke="none" stroke-width="0"/>
<rect x="372.2" y="310.0" width="38.3" height="47.2" fill="#c5dc3b" stroke="none" stroke-width="0"/>
<rect x="410.0" y="310.0" width="38.3" height="47.2" fill="#fde725" stroke="none" stroke-width="0"/>
<rect x="447.8" y="310.0" width="38.3" height="47.2" fill="#fde725" stroke="none" stroke-width="0"/>
<rect x="485.6" y="310.0" width="38.3" height="47.2" fill="#fde725" stroke="none" stroke-width="0"/>
<rect x="523.3" y="310.0" width="38.3" height="47.2" fill="#fde725" stroke="none" stroke-width="0"/>
<rect x="561.1" y="310.0" width="38.3" height="47.2" fill="#fde725" stroke="none" stroke-width="0"/>
<rect x="598.9" y="310.0" width="38.3" height="47.2" fill="#fde725" stroke="none" stroke-width="0"/>
<rect x="636.7" y="310.0" width="38.3" height="47.2" fill="#fde725" stroke="none" stroke-width="0"/>
<rect x="674.4" y="310.0" width="38.3" height="47.2" fill="#fde725" stroke="none" stroke-width="0"/>
<rect x="712.2" y="310.0" width="38.3" height="47.2" fill="#fde725" stroke="none" stroke-width="0"/>
<rect x="70.0" y="263.3" width="38.3" height="47.2" fill="#411a65" stroke="none" stroke-width="0"/>
<rect x="107.8" y="263.3" width="38.3" height="47.2" fill="#3e3879" stroke="none" stroke-width="0"/>
<rect x="145.6" y="263.3" width="38.3" height="47.2" fill="#39568b" stroke="none" stroke-width="0"/>
<rect x="183.3" y="263.3" width="38.3" height="47.2" fill="#2f6f8b" stroke="none" stroke-width="0"/>
<rect x="221.1" y="263.3" width="38.3" height="47.2" fill="#24898c" stroke="none" stroke-width="0"/>
<rect x="258.9" y="263.3" width="38.3" height="47.2" fill="#33a280" stroke="none" stroke-width="0"/>
<rect x="296.7" y="263.3" width="38.3" height="47.2" fill="#4eba6d" stroke="none" stroke-width="0"/>
<rect x="334.4" y="263.3" width="38.3" height="47.2" fill="#7bce57" stroke="none" stroke-width="0"/>
<rect x="372.2" y="263.3" width="38.3" height="47.2" fill="#c5dc3b" stroke="none" stroke-width="0"/>
<rect x="410.0" y="263.3" width="38.3" height="47.2" fill="#fde725" stroke="none" stroke-width="0"/>
<rect x="447.8" y="263.3" width="38.3" height="47.2" fill="#fde725" stroke="none" stroke-width="0"/>
<rect x="485.6" y="263.3" width="38.3" height="47.2" fill="#fde725" stroke="none" stroke-width="0"/>
<rect x="523.3" y="263.3" width="38.3" height="47.2" fill="#fde725" stroke="none" stroke-width="0"/>
<rect x="561.1" y="263.3" width="38.3" height="47.2" fill="#fde725" stroke="none" stroke-width="0"/>
<rect x="598.9" y="263.3" width="38.3" height="47.2" fill="#fde725" stroke="none" stroke-width="0"/>
<rect x="636.7" y="263.3" width="38.3" height="47.2" fill="#fde725" stroke="none" stroke-width="0"/>
<rect x="674.4" y="263.3" width="38.3" height="47.2" fill="#fde725" stroke="none" stroke-width="0"/>
<rect x="712.2" y="263.3" width="38.3" height="47.2" fill="#fde725" stroke="none" stroke-width="0"/>
<rect x="70.0" y="216.7" width="38.3" height="47.2" fill="#42105e" stroke="none" stroke-width="0"/>
<rect x="107.8" y="216.7" width="38.3" height="47.2" fill="#40246c" stroke="none" stroke-width="0"/>
<rect x="145.6" y="216.7" width="38.3" height="47.2" fill="#3e3879" stroke="none" stroke-width="0"/>
<rect x="183.3" y="216.7" width="38.3" height="47.2" fill="#3c4d88" stroke="none" stroke-width="0"/>
<rect x="221.1" y="216.7" width="38.3" height="47.2" fill="#3c4884" stroke="none" stroke-width="0"/>
<rect x="258.9" y="216.7" width="38.3" height="47.2" fill="#39568b" stroke="none" stroke-width="0"/>
<rect x="296.7" y="216.7" width="38.3" height="47.2" fill="#34638b" stroke="none" stroke-width="0"/>
<rect x="334.4" y="216.7" width="38.3" height="47.2" fill="#2f6f8b" stroke="none" stroke-width="0"/>
<rect x="372.2" y="216.7" width="38.3" height="47.2" fill="#2a7c8c" stroke="none" stroke-width="0"/>
<rect x="410.0" y="216.7" width="38.3" height="47.2" fill="#24898c" stroke="none" stroke-width="0"/>
<rect x="447.8" y="216.7" width="38.3" height="47.2" fill="#269688" stroke="none" stroke-width="0"/>
<rect x="485.6" y="216.7" width="38.3" height="47.2" fill="#33a280" stroke="none" stroke-width="0"/>
<rect x="523.3" y="216.7" width="38.3" height="47.2" fill="#40ae76" stroke="none" stroke-width="0"/>
<rect x="561.1" y="216.7" width="38.3" height="47.2" fill="#4eba6d" stroke="none" stroke-width="0"/>
<rect x="598.9" y="216.7" width="38.3" height="47.2" fill="#5bc764" stroke="none" stroke-width="0"/>
<rect x="636.7" y="216.7" width="38.3" height="47.2" fill="#7bce57" stroke="none" stroke-width="0"/>
<rect x="674.4" y="216.7" width="38.3" height="47.2" fill="#a0d549" stroke="none" stroke-width="0"/>
<rect x="712.2" y="216.7" width="38.3" height="47.2" fill="#c5dc3b" stroke="none" stroke-width="0"/>
<rect x="70.0" y="170.0" width="38.3" height="47.2" fill="#430859" stroke="none" stroke-width="0"/>
<rect x="107.8" y="170.0" width="38.3" height="47.2" fill="#421461" stroke="none" stroke-width="0"/>
<rect x="145.6" y="170.0" width="38.3" height="47.2" fill="#412069" stroke="none" stroke-width="0"/>
<rect x="183.3" y="170.0" width="38.3" height="47.2" fill="#3f2c71" stroke="none" stroke-width="0"/>
<rect x="221.1" y="170.0" width="38.3" height="47.2" fill="#3e3879" stroke="none" stroke-width="0"/>
<rect x="258.9" y="170.0" width="38.3" height="47.2" fill="#3c4582" stroke="none" stroke-width="0"/>
<rect x="296.7" y="170.0" width="38.3" height="47.2" fill="#3b518a" stroke="none" stroke-width="0"/>
<rect x="334.4" y="170.0" width="38.3" height="47.2" fill="#375b8b" stroke="none" stroke-width="0"/>
<rect x="372.2" y="170.0" width="38.3" height="47.2" fill="#33658b" stroke="none" stroke-width="0"/>
<rect x="410.0" y="170.0" width="38.3" height="47.2" fill="#2f6f8b" stroke="none" stroke-width="0"/>
<rect x="447.8" y="170.0" width="38.3" height="47.2" fill="#2b7a8c" stroke="none" stroke-width="0"/>
<rect x="485.6" y="170.0" width="38.3" height="47.2" fill="#26848c" stroke="none" stroke-width="0"/>
<rect x="523.3" y="170.0" width="38.3" height="47.2" fill="#228e8c" stroke="none" stroke-width="0"/>
<rect x="561.1" y="170.0" width="38.3" height="47.2" fill="#299887" stroke="none" stroke-width="0"/>
<rect x="598.9" y="170.0" width="38.3" height="47.2" fill="#33a280" stroke="none" stroke-width="0"/>
<rect x="636.7" y="170.0" width="38.3" height="47.2" fill="#3eab78" stroke="none" stroke-width="0"/>
<rect x="674.4" y="170.0" width="38.3" height="47.2" fill="#48b571" stroke="none" stroke-width="0"/>
<rect x="712.2" y="170.0" width="38.3" height="47.2" fill="#53bf69" stroke="none" stroke-width="0"/>
<rect x="70.0" y="123.3" width="38.3" height="47.2" fill="#440456" stroke="none" stroke-width="0"/>
<rect x="107.8" y="123.3" width="38.3" height="47.2" fill="#430d5c" stroke="none" stroke-width="0"/>
<rect x="145.6" y="123.3" width="38.3" height="47.2" fill="#421562" stroke="none" stroke-width="0"/>
<rect x="183.3" y="123.3" width="38.3" height="47.2" fill="#411e68" stroke="none" stroke-width="0"/>
<rect x="221.1" y="123.3" width="38.3" height="47.2" fill="#40276e" stroke="none" stroke-width="0"/>
<rect x="258.9" y="123.3" width="38.3" height="47.2" fill="#3f2f73" stroke="none" stroke-width="0"/>
<rect x="296.7" y="123.3" width="38.3" height="47.2" fill="#3e3879" stroke="none" stroke-width="0"/>
<rect x="334.4" y="123.3" width="38.3" height="47.2" fill="#3d417f" stroke="none" stroke-width="0"/>
<rect x="372.2" y="123.3" width="38.3" height="47.2" fill="#3c4a85" stroke="none" stroke-width="0"/>
<rect x="410.0" y="123.3" width="38.3" height="47.2" fill="#3c4884" stroke="none" stroke-width="0"/>
<rect x="447.8" y="123.3" width="38.3" height="47.2" fill="#3b4f89" stroke="none" stroke-width="0"/>
<rect x="485.6" y="123.3" width="38.3" height="47.2" fill="#39568b" stroke="none" stroke-width="0"/>
<rect x="523.3" y="123.3" width="38.3" height="47.2" fill="#375c8b" stroke="none" stroke-width="0"/>
<rect x="561.1" y="123.3" width="38.3" height="47.2" fill="#34638b" stroke="none" stroke-width="0"/>
<rect x="598.9" y="123.3" width="38.3" height="47.2" fill="#32698b" stroke="none" stroke-width="0"/>
<rect x="636.7" y="123.3" width="38.3" height="47.2" fill="#2f6f8b" stroke="none" stroke-width="0"/>
<rect x="674.4" y="123.3" width="38.3" height="47.2" fill="#2c768c" stroke="none" stroke-width="0"/>
<rect x="712.2" y="123.3" width="38.3" height="47.2" fill="#2a7c8c" stroke="none" stroke-width="0"/>
<rect x="70.0" y="76.7" width="38.3" height="47.2" fill="#440154" stroke="none" stroke-width="0"/>
<rect x="107.8" y="76.7" width="38.3" height="47.2" fill="#430758" stroke="none" stroke-width="0"/>
<rect x="145.6" y="76.7" width="38.3" height="47.2" fill="#430c5c" stroke="none" stroke-width="0"/>
<rect x="183.3" y="76.7" width="38.3" height="47.2" fill="#42125f" stroke="none" stroke-width="0"/>
<rect x="221.1" y="76.7" width="38.3" height="47.2" fill="#421763" stroke="none" stroke-width="0"/>
<rect x="258.9" y="76.7" width="38.3" height="47.2" fill="#411c67" stroke="none" stroke-width="0"/>
<rect x="296.7" y="76.7" width="38.3" height="47.2" fill="#40226a" stroke="none" stroke-width="0"/>
<rect x="334.4" y="76.7" width="38.3" height="47.2" fill="#40276e" stroke="none" stroke-width="0"/>
<rect x="372.2" y="76.7" width="38.3" height="47.2" fill="#3f2d72" stroke="none" stroke-width="0"/>
<rect x="410.0" y="76.7" width="38.3" height="47.2" fill="#3e3376" stroke="none" stroke-width="0"/>
<rect x="447.8" y="76.7" width="38.3" height="47.2" fill="#3e3879" stroke="none" stroke-width="0"/>
<rect x="485.6" y="76.7" width="38.3" height="47.2" fill="#3d3e7d" stroke="none" stroke-width="0"/>
<rect x="523.3" y="76.7" width="38.3" height="47.2" fill="#3d4381" stroke="none" stroke-width="0"/>
<rect x="561.1" y="76.7" width="38.3" height="47.2" fill="#3d4280" stroke="none" stroke-width="0"/>
<rect x="598.9" y="76.7" width="38.3" height="47.2" fill="#3c4884" stroke="none" stroke-width="0"/>
<rect x="636.7" y="76.7" width="38.3" height="47.2" fill="#3c4d88" stroke="none" stroke-width="0"/>
<rect x="674.4" y="76.7" width="38.3" height="47.2" fill="#3b528b" stroke="none" stroke-width="0"/>
<rect x="712.2" y="76.7" width="38.3" height="47.2" fill="#39568b" stroke="none" stroke-width="0"/>
<rect x="70.0" y="30.0" width="38.3" height="47.2" fill="#440154" stroke="none" stroke-width="0"/>
<rect x="107.8" y="30.0" width="38.3" height="47.2" fill="#430657" stroke="none" stroke-width="0"/>
<rect x="145.6" y="30.0" width="38.3" height="47.2" fill="#430b5b" stroke="none" stroke-width="0"/>
<rect x="183.3" y="30.0" width="38.3" height="47.2" fill="#42105e" stroke="none" stroke-width="0"/>
<rect x="221.1" y="30.0" width="38.3" height="47.2" fill="#421561" stroke="none" stroke-width="0"/>
<rect x="258.9" y="30.0" width="38.3" height="47.2" fill="#411a65" stroke="none" stroke-width="0"/>
<rect x="296.7" y="30.0" width="38.3" height="47.2" fill="#411f68" stroke="none" stroke-width="0"/>
<rect x="334.4" y="30.0" width="38.3" height="47.2" fill="#40246c" stroke="none" stroke-width="0"/>
<rect x="372.2" y="30.0" width="38.3" height="47.2" fill="#40296f" stroke="none" stroke-width="0"/>
<rect x="410.0" y="30.0" width="38.3" height="47.2" fill="#3f2e72" stroke="none" stroke-width="0"/>
<rect x="447.8" y="30.0" width="38.3" height="47.2" fill="#3e3376" stroke="none" stroke-width="0"/>
<rect x="485.6" y="30.0" width="38.3" height="47.2" fill="#3e3879" stroke="none" stroke-width="0"/>
<rect x="523.3" y="30.0" width="38.3" height="47.2" fill="#3d3d7d" stroke="none" stroke-width="0"/>
<rect x="561.1" y="30.0" width="38.3" height="47.2" fill="#3d4280" stroke="none" stroke-width="0"/>
<rect x="598.9" y="30.0" width="38.3" height="47.2" fill="#3c4884" stroke="none" stroke-width="0"/>
<rect x="636.7" y="30.0" width="38.3" height="47.2" fill="#3c4d88" stroke="none" stroke-width="0"/>
<rect x="674.4" y="30.0" width="38.3" height="47.2" fill="#3b528b" stroke="none" stroke-width="0"/>
<rect x="712.2" y="30.0" width="38.3" height="47.2" fill="#39568b" stroke="none" stroke-width="0"/>
<rect x="70.0" y="30.0" width="680.0" height="420.0" fill="none" stroke="#999" stroke-width="1"/>
<text x="88.9" y="468.0" font-size="10" font-family="Helvetica,Arial,sans-serif" text-anchor="middle" fill="#222" font-weight="normal">10</text>
<text x="164.4" y="468.0" font-size="10" font-family="Helvetica,Arial,sans-serif" text-anchor="middle" fill="#222" font-weight="normal">30</text>
<text x="240.0" y="468.0" font-size="10" font-family="Helvetica,Arial,sans-serif" text-anchor="middle" fill="#222" font-weight="normal">50</text>
<text x="315.6" y="468.0" font-size="10" font-family="Helvetica,Arial,sans-serif" text-anchor="middle" fill="#222" font-weight="normal">70</text>
<text x="391.1" y="468.0" font-size="10" font-family="Helvetica,Arial,sans-serif" text-anchor="middle" fill="#222" font-weight="normal">90</text>
<text x="466.7" y="468.0" font-size="10" font-family="Helvetica,Arial,sans-serif" text-anchor="middle" fill="#222" font-weight="normal">110</text>
<text x="542.2" y="468.0" font-size="10" font-family="Helvetica,Arial,sans-serif" text-anchor="middle" fill="#222" font-weight="normal">130</text>
<text x="617.8" y="468.0" font-size="10" font-family="Helvetica,Arial,sans-serif" text-anchor="middle" fill="#222" font-weight="normal">150</text>
<text x="693.3" y="468.0" font-size="10" font-family="Helvetica,Arial,sans-serif" text-anchor="middle" fill="#222" font-weight="normal">170</text>
<text x="62.0" y="430.7" font-size="10" font-family="Helvetica,Arial,sans-serif" text-anchor="end" fill="#222" font-weight="normal">1.0</text>
<text x="62.0" y="384.0" font-size="10" font-family="Helvetica,Arial,sans-serif" text-anchor="end" fill="#222" font-weight="normal">2.0</text>
<text x="62.0" y="337.3" font-size="10" font-family="Helvetica,Arial,sans-serif" text-anchor="end" fill="#222" font-weight="normal">3.0</text>
<text x="62.0" y="290.7" font-size="10" font-family="Helvetica,Arial,sans-serif" text-anchor="end" fill="#222" font-weight="normal">4.0</text>
<text x="62.0" y="244.0" font-size="10" font-family="Helvetica,Arial,sans-serif" text-anchor="end" fill="#222" font-weight="normal">6.0</text>
<text x="62.0" y="197.3" font-size="10" font-family="Helvetica,Arial,sans-serif" text-anchor="end" fill="#222" font-weight="normal">8.0</text>
<text x="62.0" y="150.7" font-size="10" font-family="Helvetica,Arial,sans-serif" text-anchor="end" fill="#222" font-weight="normal">12</text>
<text x="62.0" y="104.0" font-size="10" font-family="Helvetica,Arial,sans-serif" text-anchor="end" fill="#222" font-weight="normal">18</text>
<text x="62.0" y="57.3" font-size="10" font-family="Helvetica,Arial,sans-serif" text-anchor="end" fill="#222" font-weight="normal">24</text>
<rect x="772.0" y="439.5" width="18.0" height="11.0" fill="#440154" stroke="none" stroke-width="0"/>
<rect x="772.0" y="429.0" width="18.0" height="11.0" fill="#43095a" stroke="none" stroke-width="0"/>
<rect x="772.0" y="418.5" width="18.0" height="11.0" fill="#42125f" stroke="none" stroke-width="0"/>
<rect x="772.0" y="408.0" width="18.0" height="11.0" fill="#411a65" stroke="none" stroke-width="0"/>
<rect x="772.0" y="397.5" width="18.0" height="11.0" fill="#40226b" stroke="none" stroke-width="0"/>
<rect x="772.0" y="387.0" width="18.0" height="11.0" fill="#3f2b70" stroke="none" stroke-width="0"/>
<rect x="772.0" y="376.5" width="18.0" height="11.0" fill="#3e3376" stroke="none" stroke-width="0"/>
<rect x="772.0" y="366.0" width="18.0" height="11.0" fill="#3e3b7b" stroke="none" stroke-width="0"/>
<rect x="772.0" y="355.5" width="18.0" height="11.0" fill="#3d4381" stroke="none" stroke-width="0"/>
<rect x="772.0" y="345.0" width="18.0" height="11.0" fill="#3c4c87" stroke="none" stroke-width="0"/>
<rect x="772.0" y="334.5" width="18.0" height="11.0" fill="#3a548b" stroke="none" stroke-width="0"/>
<rect x="772.0" y="324.0" width="18.0" height="11.0" fill="#385a8b" stroke="none" stroke-width="0"/>
<rect x="772.0" y="313.5" width="18.0" height="11.0" fill="#35618b" stroke="none" stroke-width="0"/>
<rect x="772.0" y="303.0" width="18.0" height="11.0" fill="#32678b" stroke="none" stroke-width="0"/>
<rect x="772.0" y="292.5" width="18.0" height="11.0" fill="#306d8b" stroke="none" stroke-width="0"/>
<rect x="772.0" y="282.0" width="18.0" height="11.0" fill="#2d748c" stroke="none" stroke-width="0"/>
<rect x="772.0" y="271.5" width="18.0" height="11.0" fill="#2a7a8c" stroke="none" stroke-width="0"/>
<rect x="772.0" y="261.0" width="18.0" height="11.0" fill="#28818c" stroke="none" stroke-width="0"/>
<rect x="772.0" y="250.5" width="18.0" height="11.0" fill="#25878c" stroke="none" stroke-width="0"/>
<rect x="772.0" y="240.0" width="18.0" height="11.0" fill="#228e8c" stroke="none" stroke-width="0"/>
<rect x="772.0" y="229.5" width="18.0" height="11.0" fill="#24948a" stroke="none" stroke-width="0"/>
<rect x="772.0" y="219.0" width="18.0" height="11.0" fill="#2a9a86" stroke="none" stroke-width="0"/>
<rect x="772.0" y="208.5" width="18.0" height="11.0" fill="#319f81" stroke="none" stroke-width="0"/>
<rect x="772.0" y="198.0" width="18.0" height="11.0" fill="#37a57d" stroke="none" stroke-width="0"/>
<rect x="772.0" y="187.5" width="18.0" height="11.0" fill="#3dab79" stroke="none" stroke-width="0"/>
<rect x="772.0" y="177.0" width="18.0" height="11.0" fill="#43b174" stroke="none" stroke-width="0"/>
<rect x="772.0" y="166.5" width="18.0" height="11.0" fill="#4ab670" stroke="none" stroke-width="0"/>
<rect x="772.0" y="156.0" width="18.0" height="11.0" fill="#50bc6c" stroke="none" stroke-width="0"/>
<rect x="772.0" y="145.5" width="18.0" height="11.0" fill="#56c267" stroke="none" stroke-width="0"/>
<rect x="772.0" y="135.0" width="18.0" height="11.0" fill="#5cc863" stroke="none" stroke-width="0"/>
<rect x="772.0" y="124.5" width="18.0" height="11.0" fill="#6acb5d" stroke="none" stroke-width="0"/>
<rect x="772.0" y="114.0" width="18.0" height="11.0" fill="#7bce57" stroke="none" stroke-width="0"/>
<rect x="772.0" y="103.5" width="18.0" height="11.0" fill="#8bd151" stroke="none" stroke-width="0"/>
<rect x="772.0" y="93.0" width="18.0" height="11.0" fill="#9bd54b" stroke="none" stroke-width="0"/>
<rect x="772.0" y="82.5" width="18.0" height="11.0" fill="#abd844" stroke="none" stroke-width="0"/>
<rect x="772.0" y="72.0" width="18.0" height="11.0" fill="#bcdb3e" stroke="none" stroke-width="0"/>
<rect x="772.0" y="61.5" width="18.0" height="11.0" fill="#ccde38" stroke="none" stroke-width="0"/>
<rect x="772.0" y="51.0" width="18.0" height="11.0" fill="#dce132" stroke="none" stroke-width="0"/>
<rect x="772.0" y="40.5" width="18.0" height="11.0" fill="#ede42b" stroke="none" stroke-width="0"/>
<rect x="772.0" y="30.0" width="18.0" height="11.0" fill="#fde725" stroke="none" stroke-width="0"/>
<rect x="772.0" y="30.0" width="18.0" height="420.0" fill="none" stroke="#999" stroke-width="1"/>
<text x="794.0" y="454.0" font-size="10" font-family="Helvetica,Arial,sans-serif" text-anchor="start" fill="#222" font-weight="normal">12</text>
<text x="794.0" y="244.0" font-size="10" font-family="Helvetica,Arial,sans-serif" text-anchor="start" fill="#222" font-weight="normal">406</text>
<text x="794.0" y="34.0" font-size="10" font-family="Helvetica,Arial,sans-serif" text-anchor="start" fill="#222" font-weight="normal">800</text>
<text x="781.0" y="20.0" font-size="11" font-family="Helvetica,Arial,sans-serif" text-anchor="middle" fill="#222" font-weight="normal">Δv (m/s)</text>
<text x="410.0" y="18.0" font-size="16" font-family="Helvetica,Arial,sans-serif" text-anchor="middle" fill="#222" font-weight="bold">Reachability (LEO): min rescue Δv (m/s)</text>
<text x="410.0" y="504.0" font-size="13" font-family="Helvetica,Arial,sans-serif" text-anchor="middle" fill="#222" font-weight="normal">victim phase gap (degrees)</text>
<text x="18.0" y="240.0" font-size="13" font-family="Helvetica,Arial,sans-serif" text-anchor="middle" fill="#222" font-weight="normal" transform="rotate(-90 18 240.0)">life-support clock (hours)</text>
</svg>
