<svg xmlns="http://www.w3.org/2000/svg" width="820" height="520" viewBox="0 0 820 520">
<rect width="820" height="520" fill="#fafafa"/>
<rect x="70.0" y="60.0" width="720.0" height="390.0" fill="#fff" stroke="#ccc" stroke-width="1"/>
<line x1="113.6" y1="60.0" x2="113.6" y2="450.0" stroke="#eee" stroke-width="1"/>
<line x1="113.6" y1="450.0" x2="113.6" y2="455.0" stroke="#888" stroke-width="1"/>
<text x="113.6" y="468.0" font-size="11" font-family="Helvetica,Arial,sans-serif" text-anchor="middle" fill="#222" font-weight="normal">10,000</text>
<line x1="248.9" y1="60.0" x2="248.9" y2="450.0" stroke="#eee" stroke-width="1"/>
<line x1="248.9" y1="450.0" x2="248.9" y2="455.0" stroke="#888" stroke-width="1"/>
<text x="248.9" y="468.0" font-size="11" font-family="Helvetica,Arial,sans-serif" text-anchor="middle" fill="#222" font-weight="normal">20,000</text>
<line x1="384.2" y1="60.0" x2="384.2" y2="450.0" stroke="#eee" stroke-width="1"/>
<line x1="384.2" y1="450.0" x2="384.2" y2="455.0" stroke="#888" stroke-width="1"/>
<text x="384.2" y="468.0" font-size="11" font-family="Helvetica,Arial,sans-serif" text-anchor="middle" fill="#222" font-weight="normal">30,000</text>
<line x1="519.4" y1="60.0" x2="519.4" y2="450.0" stroke="#eee" stroke-width="1"/>
<line x1="519.4" y1="450.0" x2="519.4" y2="455.0" stroke="#888" stroke-width="1"/>
<text x="519.4" y="468.0" font-size="11" font-family="Helvetica,Arial,sans-serif" text-anchor="middle" fill="#222" font-weight="normal">40,000</text>
<line x1="654.7" y1="60.0" x2="654.7" y2="450.0" stroke="#eee" stroke-width="1"/>
<line x1="654.7" y1="450.0" x2="654.7" y2="455.0" stroke="#888" stroke-width="1"/>
<text x="654.7" y="468.0" font-size="11" font-family="Helvetica,Arial,sans-serif" text-anchor="middle" fill="#222" font-weight="normal">50,000</text>
<line x1="790.0" y1="60.0" x2="790.0" y2="450.0" stroke="#eee" stroke-width="1"/>
<line x1="790.0" y1="450.0" x2="790.0" y2="455.0" stroke="#888" stroke-width="1"/>
<text x="790.0" y="468.0" font-size="11" font-family="Helvetica,Arial,sans-serif" text-anchor="middle" fill="#222" font-weight="normal">60,000</text>
<line x1="70.0" y1="450.0" x2="790.0" y2="450.0" stroke="#eee" stroke-width="1"/>
<line x1="65.0" y1="450.0" x2="70.0" y2="450.0" stroke="#888" stroke-width="1"/>
<text x="61.0" y="454.0" font-size="11" font-family="Helvetica,Arial,sans-serif" text-anchor="end" fill="#222" font-weight="normal">1.0</text>
<line x1="70.0" y1="206.6" x2="790.0" y2="206.6" stroke="#eee" stroke-width="1"/>
<line x1="65.0" y1="206.6" x2="70.0" y2="206.6" stroke="#888" stroke-width="1"/>
<text x="61.0" y="210.6" font-size="11" font-family="Helvetica,Arial,sans-serif" text-anchor="end" fill="#222" font-weight="normal">10</text>
<line x1="70.0" y1="260.6" x2="790.0" y2="260.6" stroke="#c0392b" stroke-width="1.5" stroke-dasharray="5 4"/>
<text x="76.0" y="256.6" font-size="10" font-family="Helvetica,Arial,sans-serif" text-anchor="start" fill="#c0392b" font-weight="normal">6 h clock</text>
<line x1="70.0" y1="60.0" x2="70.0" y2="450.0" stroke="#888" stroke-width="1.5" stroke-dasharray="5 4"/>
<text x="74.0" y="72.0" font-size="10" font-family="Helvetica,Arial,sans-serif" text-anchor="start" fill="#888" font-weight="normal">LEO</text>
<line x1="548.7" y1="60.0" x2="548.7" y2="450.0" stroke="#888" stroke-width="1.5" stroke-dasharray="5 4"/>
<text x="552.7" y="72.0" font-size="10" font-family="Helvetica,Arial,sans-serif" text-anchor="start" fill="#888" font-weight="normal">GEO</text>
<polyline points="70.0,404.2 82.0,384.7 94.0,367.3 106.0,351.7 118.0,337.4 130.0,324.3 142.0,312.3 154.0,301.0 166.0,290.6 178.0,280.7 190.0,271.5 202.0,262.7 214.0,254.5 226.0,246.6 238.0,239.1 250.0,231.9 262.0,225.1 274.0,218.5 286.0,212.2 298.0,206.1 310.0,200.3 322.0,194.6 334.0,189.2 346.0,183.9 358.0,178.8 370.0,173.9 382.0,169.1 394.0,164.5 406.0,160.0 418.0,155.6 430.0,151.3 442.0,147.1 454.0,143.1 466.0,139.1 478.0,135.3 490.0,131.5 502.0,127.8 514.0,124.3 526.0,120.7 538.0,117.3 550.0,113.9 562.0,110.6 574.0,107.4 586.0,104.3 598.0,101.2 610.0,98.1 622.0,95.1 634.0,92.2 646.0,89.3 658.0,86.5 670.0,83.7 682.0,81.0 694.0,78.3 706.0,75.7 718.0,73.1 730.0,70.5 742.0,68.0 754.0,65.5 766.0,63.1 778.0,60.7 790.0,58.4" fill="none" stroke="#2c7fb8" stroke-width="2.2"/>
<text x="430.0" y="48.0" font-size="16" font-family="Helvetica,Arial,sans-serif" text-anchor="middle" fill="#222" font-weight="bold">Orbital period vs radius (Keplerian)</text>
<text x="430.0" y="504.0" font-size="13" font-family="Helvetica,Arial,sans-serif" text-anchor="middle" fill="#222" font-weight="normal">orbit radius (km)</text>
<text x="18.0" y="255.0" font-size="13" font-family="Helvetica,Arial,sans-serif" text-anchor="middle" fill="#222" font-weight="normal" transform="rotate(-90 18 255.0)">period (hours)</text>
</svg>
