<svg xmlns="http://www.w3.org/2000/svg" width="820" height="520" viewBox="0 0 820 520">
<rect width="820" height="520" fill="#fafafa"/>
<rect x="70.0" y="60.0" width="720.0" height="390.0" fill="#fff" stroke="#ccc" stroke-width="1"/>
<line x1="70.0" y1="60.0" x2="70.0" y2="450.0" stroke="#eee" stroke-width="1"/>
<line x1="70.0" y1="450.0" x2="70.0" y2="455.0" stroke="#888" stroke-width="1"/>
<text x="70.0" y="468.0" font-size="11" font-family="Helvetica,Arial,sans-serif" text-anchor="middle" fill="#222" font-weight="normal">0</text>
<line x1="267.3" y1="60.0" x2="267.3" y2="450.0" stroke="#eee" stroke-width="1"/>
<line x1="267.3" y1="450.0" x2="267.3" y2="455.0" stroke="#888" stroke-width="1"/>
<text x="267.3" y="468.0" font-size="11" font-family="Helvetica,Arial,sans-serif" text-anchor="middle" fill="#222" font-weight="normal">100</text>
<line x1="464.5" y1="60.0" x2="464.5" y2="450.0" stroke="#eee" stroke-width="1"/>
<line x1="464.5" y1="450.0" x2="464.5" y2="455.0" stroke="#888" stroke-width="1"/>
<text x="464.5" y="468.0" font-size="11" font-family="Helvetica,Arial,sans-serif" text-anchor="middle" fill="#222" font-weight="normal">200</text>
<line x1="661.8" y1="60.0" x2="661.8" y2="450.0" stroke="#eee" stroke-width="1"/>
<line x1="661.8" y1="450.0" x2="661.8" y2="455.0" stroke="#888" stroke-width="1"/>
<text x="661.8" y="468.0" font-size="11" font-family="Helvetica,Arial,sans-serif" text-anchor="middle" fill="#222" font-weight="normal">300</text>
<line x1="70.0" y1="450.0" x2="790.0" y2="450.0" stroke="#eee" stroke-width="1"/>
<line x1="65.0" y1="450.0" x2="70.0" y2="450.0" stroke="#888" stroke-width="1"/>
<text x="61.0" y="454.0" font-size="11" font-family="Helvetica,Arial,sans-serif" text-anchor="end" fill="#222" font-weight="normal">0</text>
<line x1="70.0" y1="375.7" x2="790.0" y2="375.7" stroke="#eee" stroke-width="1"/>
<line x1="65.0" y1="375.7" x2="70.0" y2="375.7" stroke="#888" stroke-width="1"/>
<text x="61.0" y="379.7" font-size="11" font-family="Helvetica,Arial,sans-serif" text-anchor="end" fill="#222" font-weight="normal">20</text>
<line x1="70.0" y1="301.4" x2="790.0" y2="301.4" stroke="#eee" stroke-width="1"/>
<line x1="65.0" y1="301.4" x2="70.0" y2="301.4" stroke="#888" stroke-width="1"/>
<text x="61.0" y="305.4" font-size="11" font-family="Helvetica,Arial,sans-serif" text-anchor="end" fill="#222" font-weight="normal">40</text>
<line x1="70.0" y1="227.1" x2="790.0" y2="227.1" stroke="#eee" stroke-width="1"/>
<line x1="65.0" y1="227.1" x2="70.0" y2="227.1" stroke="#888" stroke-width="1"/>
<text x="61.0" y="231.1" font-size="11" font-family="Helvetica,Arial,sans-serif" text-anchor="end" fill="#222" font-weight="normal">60</text>
<line x1="70.0" y1="152.9" x2="790.0" y2="152.9" stroke="#eee" stroke-width="1"/>
<line x1="65.0" y1="152.9" x2="70.0" y2="152.9" stroke="#888" stroke-width="1"/>
<text x="61.0" y="156.9" font-size="11" font-family="Helvetica,Arial,sans-serif" text-anchor="end" fill="#222" font-weight="normal">80</text>
<line x1="70.0" y1="78.6" x2="790.0" y2="78.6" stroke="#eee" stroke-width="1"/>
<line x1="65.0" y1="78.6" x2="70.0" y2="78.6" stroke="#888" stroke-width="1"/>
<text x="61.0" y="82.6" font-size="11" font-family="Helvetica,Arial,sans-serif" text-anchor="end" fill="#222" font-weight="normal">100</text>
<polyline points="70.0,78.6 79.9,97.1 89.7,115.7 99.6,134.3 109.5,152.9 119.3,171.4 129.2,190.0 139.0,208.6 148.9,227.1 158.8,245.7 168.6,264.3 178.5,282.9 188.4,301.4 198.2,320.0 208.1,338.6 217.9,357.1 227.8,375.7 237.7,394.3 247.5,412.9 257.4,431.4 267.3,450.0 277.1,450.0 287.0,450.0 296.8,450.0 306.7,450.0 316.6,450.0 326.4,450.0 336.3,450.0 346.2,450.0 356.0,450.0 365.9,450.0 375.8,450.0 385.6,450.0 395.5,450.0 405.3,450.0 415.2,450.0 425.1,450.0 434.9,450.0 444.8,450.0 454.7,450.0 464.5,450.0 474.4,450.0 484.2,450.0 494.1,450.0 504.0,450.0 513.8,450.0 523.7,450.0 533.6,450.0 543.4,450.0 553.3,450.0 563.2,450.0 573.0,450.0 582.9,450.0 592.7,450.0 602.6,450.0 612.5,450.0 622.3,450.0 632.2,450.0 642.1,450.0 651.9,450.0 661.8,450.0 671.6,450.0 681.5,450.0 691.4,450.0 701.2,450.0 711.1,450.0 721.0,450.0 730.8,450.0 740.7,450.0 750.5,450.0 760.4,450.0 770.3,450.0 780.1,450.0 790.0,450.0" fill="none" stroke="#2c7fb8" stroke-width="2.2"/>
<polyline points="70.0,78.6 79.9,80.4 89.7,82.3 99.6,84.1 109.5,86.0 119.3,87.9 129.2,89.7 139.0,91.6 148.9,93.4 158.8,95.3 168.6,97.1 178.5,99.0 188.4,100.9 198.2,102.7 208.1,104.6 217.9,106.4 227.8,108.3 237.7,110.1 247.5,112.0 257.4,113.9 267.3,115.7 277.1,117.6 287.0,119.4 296.8,121.3 306.7,123.1 316.6,125.0 326.4,126.9 336.3,128.7 346.2,130.6 356.0,132.4 365.9,134.3 375.8,136.1 385.6,138.0 395.5,139.9 405.3,141.7 415.2,143.6 425.1,145.4 434.9,147.3 444.8,149.1 454.7,151.0 464.5,152.9 474.4,154.7 484.2,156.6 494.1,158.4 504.0,160.3 513.8,162.1 523.7,164.0 533.6,165.9 543.4,167.7 553.3,169.6 563.2,171.4 573.0,173.3 582.9,175.1 592.7,177.0 602.6,178.9 612.5,180.7 622.3,182.6 632.2,184.4 642.1,186.3 651.9,188.1 661.8,190.0 671.6,191.9 681.5,193.7 691.4,195.6 701.2,197.4 711.1,199.3 721.0,201.1 730.8,203.0 740.7,204.9 750.5,206.7 760.4,208.6 770.3,210.4 780.1,212.3 790.0,214.1" fill="none" stroke="#d95f02" stroke-width="2.2"/>
<polyline points="70.0,78.6 79.9,80.4 89.7,82.3 99.6,84.1 109.5,86.0 119.3,87.9 129.2,89.7 139.0,91.6 148.9,93.4 158.8,95.3 168.6,97.1 178.5,99.0 188.4,100.9 198.2,102.7 208.1,104.6 217.9,106.4 227.8,108.3 237.7,110.1 247.5,112.0 257.4,113.9 267.3,115.7 277.1,117.6 287.0,119.4 296.8,121.3 306.7,123.1 316.6,125.0 326.4,126.9 336.3,128.7 346.2,130.6 356.0,132.4 365.9,134.3 375.8,136.1 385.6,138.0 395.5,139.9 405.3,141.7 415.2,143.6 425.1,145.4 434.9,147.3 444.8,149.1 454.7,151.0 464.5,152.9 474.4,154.7 484.2,156.6 494.1,158.4 504.0,160.3 513.8,162.1 523.7,164.0 533.6,165.9 543.4,167.7 553.3,169.6 563.2,171.4 573.0,173.3 582.9,175.1 592.7,177.0 602.6,178.9 612.5,180.7 622.3,182.6 632.2,184.4 642.1,186.3 651.9,188.1 661.8,190.0 671.6,191.9 681.5,193.7 691.4,195.6 701.2,197.4 711.1,199.3 721.0,201.1 730.8,203.0 740.7,204.9 750.5,206.7 760.4,208.6 770.3,210.4 780.1,212.3 790.0,214.1" fill="none" stroke="#1b9e77" stroke-width="2.2"/>
<polyline points="70.0,78.6 79.9,78.6 89.7,78.6 99.6,78.6 109.5,78.6 119.3,78.6 129.2,78.6 139.0,78.6 148.9,78.6 158.8,78.6 168.6,78.6 178.5,78.6 188.4,78.6 198.2,78.6 208.1,78.6 217.9,78.6 227.8,78.6 237.7,78.6 247.5,78.6 257.4,78.6 267.3,78.6 277.1,78.6 287.0,78.6 296.8,78.6 306.7,78.6 316.6,78.6 326.4,78.6 336.3,78.6 346.2,78.6 356.0,78.6 365.9,78.6 375.8,78.6 385.6,78.6 395.5,78.6 405.3,78.6 415.2,78.6 425.1,78.6 434.9,78.6 444.8,78.6 454.7,78.6 464.5,78.6 474.4,78.6 484.2,78.6 494.1,78.6 504.0,78.6 513.8,78.6 523.7,78.6 533.6,78.6 543.4,78.6 553.3,78.6 563.2,78.6 573.0,78.6 582.9,78.6 592.7,78.6 602.6,78.6 612.5,78.6 622.3,78.6 632.2,78.6 642.1,78.6 651.9,78.6 661.8,78.6 671.6,78.6 681.5,78.6 691.4,78.6 701.2,78.6 711.1,78.6 721.0,78.6 730.8,78.6 740.7,78.6 750.5,78.6 760.4,78.6 770.3,78.6 780.1,78.6 790.0,78.6" fill="none" stroke="#7570b3" stroke-width="2.2"/>
<polyline points="70.0,78.6 79.9,78.6 89.7,78.6 99.6,78.6 109.5,78.6 119.3,78.6 129.2,78.6 139.0,78.6 148.9,78.6 158.8,78.6 168.6,78.6 178.5,78.6 188.4,78.6 198.2,78.6 208.1,78.6 217.9,78.6 227.8,78.6 237.7,78.6 247.5,78.6 257.4,78.6 267.3,78.6 277.1,78.6 287.0,78.6 296.8,78.6 306.7,78.6 316.6,78.6 326.4,78.6 336.3,78.6 346.2,78.6 356.0,78.6 365.9,78.6 375.8,78.6 385.6,78.6 395.5,78.6 405.3,78.6 415.2,78.6 425.1,78.6 434.9,78.6 444.8,78.6 454.7,78.6 464.5,78.6 474.4,78.6 484.2,78.6 494.1,78.6 504.0,78.6 513.8,78.6 523.7,78.6 533.6,78.6 543.4,78.6 553.3,78.6 563.2,78.6 573.0,78.6 582.9,78.6 592.7,78.6 602.6,78.6 612.5,78.6 622.3,78.6 632.2,78.6 642.1,78.6 651.9,78.6 661.8,78.6 671.6,78.6 681.5,78.6 691.4,78.6 701.2,78.6 711.1,78.6 721.0,78.6 730.8,78.6 740.7,78.6 750.5,78.6 760.4,78.6 770.3,78.6 780.1,78.6 790.0,78.6" fill="none" stroke="#e7298a" stroke-width="2.2"/>
<text x="430.0" y="48.0" font-size="16" font-family="Helvetica,Arial,sans-serif" text-anchor="middle" fill="#222" font-weight="bold">Passive boiloff: tank remaining vs time</text>
<text x="430.0" y="504.0" font-size="13" font-family="Helvetica,Arial,sans-serif" text-anchor="middle" fill="#222" font-weight="normal">days in storage</text>
<text x="18.0" y="255.0" font-size="13" font-family="Helvetica,Arial,sans-serif" text-anchor="middle" fill="#222" font-weight="normal" transform="rotate(-90 18 255.0)">tank remaining (%)</text>
<rect x="632.0" y="58.0" width="158.0" height="98.0" fill="#ffffffcc" stroke="#ddd" stroke-width="1"/>
<line x1="640.0" y1="72.0" x2="662.0" y2="72.0" stroke="#2c7fb8" stroke-width="3"/>
<text x="668.0" y="76.0" font-size="11" font-family="Helvetica,Arial,sans-serif" text-anchor="start" fill="#222" font-weight="normal">Liquid hydrogen (LH2)</text>
<line x1="640.0" y1="90.0" x2="662.0" y2="90.0" stroke="#d95f02" stroke-width="3"/>
<text x="668.0" y="94.0" font-size="11" font-family="Helvetica,Arial,sans-serif" text-anchor="start" fill="#222" font-weight="normal">Liquid methane (LCH4)</text>
<line x1="640.0" y1="108.0" x2="662.0" y2="108.0" stroke="#1b9e77" stroke-width="3"/>
<text x="668.0" y="112.0" font-size="11" font-family="Helvetica,Arial,sans-serif" text-anchor="start" fill="#222" font-weight="normal">Liquid oxygen (LOX)</text>
<line x1="640.0" y1="126.0" x2="662.0" y2="126.0" stroke="#7570b3" stroke-width="3"/>
<text x="668.0" y="130.0" font-size="11" font-family="Helvetica,Arial,sans-serif" text-anchor="start" fill="#222" font-weight="normal">Storables (N2H4/NTO)</text>
<line x1="640.0" y1="144.0" x2="662.0" y2="144.0" stroke="#e7298a" stroke-width="3"/>
<text x="668.0" y="148.0" font-size="11" font-family="Helvetica,Arial,sans-serif" text-anchor="start" fill="#222" font-weight="normal">Water / gas / food</text>
</svg>
