<svg xmlns="http://www.w3.org/2000/svg" width="820" height="520" viewBox="0 0 820 520">
<rect width="820" height="520" fill="#fafafa"/>
<rect x="70.0" y="60.0" width="720.0" height="390.0" fill="#fff" stroke="#ccc" stroke-width="1"/>
<line x1="207.9" y1="60.0" x2="207.9" y2="450.0" stroke="#eee" stroke-width="1"/>
<line x1="207.9" y1="450.0" x2="207.9" y2="455.0" stroke="#888" stroke-width="1"/>
<text x="207.9" y="468.0" font-size="11" font-family="Helvetica,Arial,sans-serif" text-anchor="middle" fill="#222" font-weight="normal">10</text>
<line x1="361.1" y1="60.0" x2="361.1" y2="450.0" stroke="#eee" stroke-width="1"/>
<line x1="361.1" y1="450.0" x2="361.1" y2="455.0" stroke="#888" stroke-width="1"/>
<text x="361.1" y="468.0" font-size="11" font-family="Helvetica,Arial,sans-serif" text-anchor="middle" fill="#222" font-weight="normal">20</text>
<line x1="514.3" y1="60.0" x2="514.3" y2="450.0" stroke="#eee" stroke-width="1"/>
<line x1="514.3" y1="450.0" x2="514.3" y2="455.0" stroke="#888" stroke-width="1"/>
<text x="514.3" y="468.0" font-size="11" font-family="Helvetica,Arial,sans-serif" text-anchor="middle" fill="#222" font-weight="normal">30</text>
<line x1="667.4" y1="60.0" x2="667.4" y2="450.0" stroke="#eee" stroke-width="1"/>
<line x1="667.4" y1="450.0" x2="667.4" y2="455.0" stroke="#888" stroke-width="1"/>
<text x="667.4" y="468.0" font-size="11" font-family="Helvetica,Arial,sans-serif" text-anchor="middle" fill="#222" font-weight="normal">40</text>
<line x1="70.0" y1="450.0" x2="790.0" y2="450.0" stroke="#eee" stroke-width="1"/>
<line x1="65.0" y1="450.0" x2="70.0" y2="450.0" stroke="#888" stroke-width="1"/>
<text x="61.0" y="454.0" font-size="11" font-family="Helvetica,Arial,sans-serif" text-anchor="end" fill="#222" font-weight="normal">0</text>
<line x1="70.0" y1="344.6" x2="790.0" y2="344.6" stroke="#eee" stroke-width="1"/>
<line x1="65.0" y1="344.6" x2="70.0" y2="344.6" stroke="#888" stroke-width="1"/>
<text x="61.0" y="348.6" font-size="11" font-family="Helvetica,Arial,sans-serif" text-anchor="end" fill="#222" font-weight="normal">50</text>
<line x1="70.0" y1="239.2" x2="790.0" y2="239.2" stroke="#eee" stroke-width="1"/>
<line x1="65.0" y1="239.2" x2="70.0" y2="239.2" stroke="#888" stroke-width="1"/>
<text x="61.0" y="243.2" font-size="11" font-family="Helvetica,Arial,sans-serif" text-anchor="end" fill="#222" font-weight="normal">100</text>
<line x1="70.0" y1="133.8" x2="790.0" y2="133.8" stroke="#eee" stroke-width="1"/>
<line x1="65.0" y1="133.8" x2="70.0" y2="133.8" stroke="#888" stroke-width="1"/>
<text x="61.0" y="137.8" font-size="11" font-family="Helvetica,Arial,sans-serif" text-anchor="end" fill="#222" font-weight="normal">150</text>
<polyline points="70.0,450.0 85.3,395.2 100.6,340.4 116.0,340.4 131.3,285.6 146.6,230.8 161.9,230.8 177.2,175.9 192.6,121.1 207.9,121.1 223.2,72.6 238.5,72.6 253.8,72.6 269.1,72.6 284.5,72.6 299.8,72.6 315.1,72.6 330.4,72.6 345.7,72.6 361.1,72.6 376.4,72.6 391.7,72.6 407.0,72.6 422.3,72.6 437.7,72.6 453.0,72.6 468.3,72.6 483.6,72.6 498.9,72.6 514.3,72.6 529.6,72.6 544.9,72.6 560.2,72.6 575.5,72.6 590.9,72.6 606.2,72.6 621.5,72.6 636.8,72.6 652.1,72.6 667.4,72.6 682.8,72.6 698.1,72.6 713.4,72.6 728.7,72.6 744.0,72.6 759.4,72.6 774.7,72.6 790.0,72.6" fill="none" stroke="#2c7fb8" stroke-width="2.2"/>
<polyline points="70.0,450.0 85.3,450.0 100.6,450.0 116.0,450.0 131.3,450.0 146.6,369.9 161.9,369.9 177.2,369.9 192.6,369.9 207.9,369.9 223.2,287.7 238.5,287.7 253.8,287.7 269.1,287.7 284.5,287.7 299.8,205.5 315.1,205.5 330.4,205.5 345.7,205.5 361.1,205.5 376.4,123.2 391.7,123.2 407.0,123.2 422.3,123.2 437.7,123.2 453.0,123.2 468.3,72.6 483.6,72.6 498.9,72.6 514.3,72.6 529.6,72.6 544.9,72.6 560.2,72.6 575.5,72.6 590.9,72.6 606.2,72.6 621.5,72.6 636.8,72.6 652.1,72.6 667.4,72.6 682.8,72.6 698.1,72.6 713.4,72.6 728.7,72.6 744.0,72.6 759.4,72.6 774.7,72.6 790.0,72.6" fill="none" stroke="#d95f02" stroke-width="2.2"/>
<polyline points="70.0,450.0 85.3,450.0 100.6,450.0 116.0,450.0 131.3,450.0 146.6,450.0 161.9,450.0 177.2,450.0 192.6,450.0 207.9,450.0 223.2,450.0 238.5,450.0 253.8,450.0 269.1,450.0 284.5,450.0 299.8,450.0 315.1,450.0 330.4,450.0 345.7,450.0 361.1,450.0 376.4,327.7 391.7,327.7 407.0,327.7 422.3,327.7 437.7,327.7 453.0,327.7 468.3,327.7 483.6,327.7 498.9,327.7 514.3,327.7 529.6,327.7 544.9,327.7 560.2,327.7 575.5,327.7 590.9,327.7 606.2,327.7 621.5,327.7 636.8,327.7 652.1,327.7 667.4,327.7 682.8,203.4 698.1,203.4 713.4,203.4 728.7,203.4 744.0,203.4 759.4,203.4 774.7,203.4 790.0,203.4" fill="none" stroke="#1b9e77" stroke-width="2.2"/>
<text x="430.0" y="48.0" font-size="16" font-family="Helvetica,Arial,sans-serif" text-anchor="middle" fill="#222" font-weight="bold">Coverage: reachable arc vs clock, by orbit</text>
<text x="430.0" y="504.0" font-size="13" font-family="Helvetica,Arial,sans-serif" text-anchor="middle" fill="#222" font-weight="normal">life-support clock (hours)</text>
<text x="18.0" y="255.0" font-size="13" font-family="Helvetica,Arial,sans-serif" text-anchor="middle" fill="#222" font-weight="normal" transform="rotate(-90 18 255.0)">reachable phase arc (degrees)</text>
<rect x="632.0" y="58.0" width="158.0" height="62.0" fill="#ffffffcc" stroke="#ddd" stroke-width="1"/>
<line x1="640.0" y1="72.0" x2="662.0" y2="72.0" stroke="#2c7fb8" stroke-width="3"/>
<text x="668.0" y="76.0" font-size="11" font-family="Helvetica,Arial,sans-serif" text-anchor="start" fill="#222" font-weight="normal">LEO (~93 min)</text>
<line x1="640.0" y1="90.0" x2="662.0" y2="90.0" stroke="#d95f02" stroke-width="3"/>
<text x="668.0" y="94.0" font-size="11" font-family="Helvetica,Arial,sans-serif" text-anchor="start" fill="#222" font-weight="normal">MEO (~6 h)</text>
<line x1="640.0" y1="108.0" x2="662.0" y2="108.0" stroke="#1b9e77" stroke-width="3"/>
<text x="668.0" y="112.0" font-size="11" font-family="Helvetica,Arial,sans-serif" text-anchor="start" fill="#222" font-weight="normal">GEO (~24 h)</text>
</svg>
