<svg xmlns="http://www.w3.org/2000/svg" width="720" height="520" viewBox="0 0 720 520">
<rect width="720" height="520" fill="#fafafa"/>
<line x1="70.0" y1="450.0" x2="550.0" y2="450.0" stroke="#eee" stroke-width="1"/>
<text x="61.0" y="454.0" font-size="11" font-family="Helvetica,Arial,sans-serif" text-anchor="end" fill="#222" font-weight="normal">0</text>
<line x1="70.0" y1="338.3" x2="550.0" y2="338.3" stroke="#eee" stroke-width="1"/>
<text x="61.0" y="342.3" font-size="11" font-family="Helvetica,Arial,sans-serif" text-anchor="end" fill="#222" font-weight="normal">1.0</text>
<line x1="70.0" y1="226.7" x2="550.0" y2="226.7" stroke="#eee" stroke-width="1"/>
<text x="61.0" y="230.7" font-size="11" font-family="Helvetica,Arial,sans-serif" text-anchor="end" fill="#222" font-weight="normal">2.0</text>
<line x1="70.0" y1="115.0" x2="550.0" y2="115.0" stroke="#eee" stroke-width="1"/>
<text x="61.0" y="119.0" font-size="11" font-family="Helvetica,Arial,sans-serif" text-anchor="end" fill="#222" font-weight="normal">3.0</text>
<rect x="130.0" y="387.5" width="120.0" height="62.5" fill="#2c7fb8" stroke="none" stroke-width="0"/>
<rect x="130.0" y="381.6" width="120.0" height="5.9" fill="#7570b3" stroke="none" stroke-width="0"/>
<rect x="130.0" y="314.6" width="120.0" height="67.0" fill="#e7298a" stroke="none" stroke-width="0"/>
<text x="190.0" y="468.0" font-size="12" font-family="Helvetica,Arial,sans-serif" text-anchor="middle" fill="#222" font-weight="normal">LEAN</text>
<text x="190.0" y="308.6" font-size="11" font-family="Helvetica,Arial,sans-serif" text-anchor="middle" fill="#222" font-weight="bold">$1.2B</text>
<rect x="370.0" y="351.7" width="120.0" height="98.3" fill="#2c7fb8" stroke="none" stroke-width="0"/>
<rect x="370.0" y="311.5" width="120.0" height="40.2" fill="#d95f02" stroke="none" stroke-width="0"/>
<rect x="370.0" y="227.8" width="120.0" height="83.8" fill="#1b9e77" stroke="none" stroke-width="0"/>
<rect x="370.0" y="205.2" width="120.0" height="22.6" fill="#7570b3" stroke="none" stroke-width="0"/>
<rect x="370.0" y="93.5" width="120.0" height="111.7" fill="#e7298a" stroke="none" stroke-width="0"/>
<text x="430.0" y="468.0" font-size="12" font-family="Helvetica,Arial,sans-serif" text-anchor="middle" fill="#222" font-weight="normal">FULL</text>
<text x="430.0" y="87.5" font-size="11" font-family="Helvetica,Arial,sans-serif" text-anchor="middle" fill="#222" font-weight="bold">$3.2B</text>
<rect x="70.0" y="40.0" width="480.0" height="410.0" fill="none" stroke="#999" stroke-width="1"/>
<rect x="562.0" y="38.0" width="158.0" height="98.0" fill="#ffffffcc" stroke="#ddd" stroke-width="1"/>
<line x1="570.0" y1="52.0" x2="592.0" y2="52.0" stroke="#2c7fb8" stroke-width="3"/>
<text x="598.0" y="56.0" font-size="11" font-family="Helvetica,Arial,sans-serif" text-anchor="start" fill="#222" font-weight="normal">Stage-1</text>
<line x1="570.0" y1="70.0" x2="592.0" y2="70.0" stroke="#d95f02" stroke-width="3"/>
<text x="598.0" y="74.0" font-size="11" font-family="Helvetica,Arial,sans-serif" text-anchor="start" fill="#222" font-weight="normal">Stage-2</text>
<line x1="570.0" y1="88.0" x2="592.0" y2="88.0" stroke="#1b9e77" stroke-width="3"/>
<text x="598.0" y="92.0" font-size="11" font-family="Helvetica,Arial,sans-serif" text-anchor="start" fill="#222" font-weight="normal">Stage-3</text>
<line x1="570.0" y1="106.0" x2="592.0" y2="106.0" stroke="#7570b3" stroke-width="3"/>
<text x="598.0" y="110.0" font-size="11" font-family="Helvetica,Arial,sans-serif" text-anchor="start" fill="#222" font-weight="normal">Launch</text>
<line x1="570.0" y1="124.0" x2="592.0" y2="124.0" stroke="#e7298a" stroke-width="3"/>
<text x="598.0" y="128.0" font-size="11" font-family="Helvetica,Arial,sans-serif" text-anchor="start" fill="#222" font-weight="normal">Development</text>
<text x="310.0" y="28.0" font-size="16" font-family="Helvetica,Arial,sans-serif" text-anchor="middle" fill="#222" font-weight="bold">Phase-1 cost breakdown</text>
<text x="310.0" y="504.0" font-size="13" font-family="Helvetica,Arial,sans-serif" text-anchor="middle" fill="#222" font-weight="normal"></text>
<text x="18.0" y="245.0" font-size="13" font-family="Helvetica,Arial,sans-serif" text-anchor="middle" fill="#222" font-weight="normal" transform="rotate(-90 18 245.0)">cost ($B)</text>
</svg>
